<?xml version="1.0" encoding="utf-8"?>
<!-- Generator: Adobe Illustrator 21.1.0, SVG Export Plug-In . SVG Version: 6.00 Build 0)  -->
<svg version="1.1" id="Capa_1" xmlns="http://www.w3.org/2000/svg" xmlns:xlink="http://www.w3.org/1999/xlink" x="0px" y="0px"
	 width="634px" height="187px" viewBox="0 0 634 187" style="enable-background:new 0 0 634 187;" xml:space="preserve">
<style type="text/css">
	.st0{fill:#FFFFFF;}
	.st1{fill:#E30613;}
	.st2{enable-background:new    ;}
	.st3{fill:#F4992F;}
</style>
<title>Gain</title>
<desc>Created with Sketch.</desc>
<g id="Landing">
	<g id="Tablet" transform="translate(-67.000000, -601.000000)">
		<g id="Gain" transform="translate(67.000000, 601.000000)">
			<path id="Fill-1" class="st0" d="M137,154c-10.5,3.4-31,7.3-49.9,7.3c-27.8,0-47.9-6.3-62-18.2c-16-13.2-24.2-34.3-24.2-58.2
				C0.9,32.2,42.2,6,91.7,6c18.5,0,33.1,3,40.8,6.1L125,40.9c-7.8-3-17.3-5.1-32.2-5.1c-28.3,0-49.7,14.4-49.7,49.1
				c0,32.4,19.4,48,43.6,48c5.7,0,10.3-0.4,12.5-1.4v-32h-21V72.1H137V154z"/>
			<path id="Fill-3" class="st0" d="M228.6,96.8l-7.8-30.6c-2.3-9.1-5.2-22.7-7.5-32h-0.5c-2.3,9.3-5.2,23.3-7.3,32l-8,30.6H228.6z
				 M285.2,158.5h-41.5L233.4,123h-40.6l-9.6,35.5h-40.6L189.1,5.9H240L285.2,158.5z"/>
			<path id="Fill-5" class="st0" d="M484.6,158.5h-39.9L413.9,103c-8.2-14.6-18.2-34.5-24.6-50.3h-0.9c1.1,17.8,2.1,41,2.1,68.3
				v37.5h-36V6h42.9l30.1,54.7c8,13.6,17.6,33.2,24.2,48.5h0.5c-2.1-17.8-3.4-41.6-3.4-66.9V6h36v152.5H484.6z"/>
			<polygon id="Fill-7" class="st0" points="305,46.6 344,46.6 323,158.5 283.7,158.5 			"/>
			<path id="Fill-9" class="st1" d="M312.2,11.9c4.6-9.9,15.8-14.6,25-10.3c9.2,4.2,13,15.7,8.5,25.7s-15.8,14.6-25,10.3
				C311.4,33.3,307.6,21.8,312.2,11.9"/>
			<g class="st2">
				<path class="st0" d="M510.8,88.7H524l14.6,23.4l14.6-23.4h13.2v55.5h-12v-36.2l-15.6,23.7h-0.3l-15.4-23.4v36h-12V88.7z"/>
				<path class="st0" d="M594.7,115.9l-18.5-27.3h14.3l11.6,18l11.7-18h13.9l-18.5,27.1l19.3,28.4h-14.3l-12.4-19l-12.5,19h-13.9
					L594.7,115.9z"/>
			</g>
			<path id="Fill-12" class="st3" d="M596,46.6c-3.1-15.8-12.1-39.9-25.8-39.9c-13.7,0-22.7,24.1-25.8,39.9H596z"/>
			<path id="Fill-14" class="st1" d="M617.8,72.2c-0.5,0.3-1.1,0.5-1.6,0.5c-0.6,0-1.1-0.2-1.6-0.4l-21.7-13l-21.7,13
				c-0.5,0.3-1.1,0.4-1.6,0.4c-0.6,0-1.1-0.1-1.6-0.5l-21.7-13l-21.7,13c-0.5,0.3-1.1,0.5-1.6,0.5c-0.6,0-1.1-0.2-1.6-0.4L508,64.2
				c2.6,10.2,11.9,17.9,22.9,17.9h77.6c11,0,22-7.7,24.6-18L617.8,72.2z"/>
			<path id="Fill-16" class="st3" d="M512,52.2c-1.1,0-2.2,0.4-3,1.2c-0.8,0.8-1.2,1.9-1.2,3V64l15.8,9.5l21.7-13
				c1-0.6,2.2-0.6,3.3,0l21.7,13l21.7-13c1-0.6,2.2-0.6,3.3,0l21.7,13l15.8-9.5v-7.6c0-2.3-1.9-4.2-4.2-4.2H512z"/>
			<g class="st2">
				<path class="st0" d="M10.6,186c-1.4,0-2.6-0.2-3.7-0.7c-1.1-0.5-2.1-1.1-2.9-1.9c-0.8-0.8-1.4-1.8-1.9-2.9
					c-0.5-1.1-0.7-2.3-0.7-3.6v0c0-1.3,0.2-2.4,0.7-3.5c0.5-1.1,1.1-2.1,1.9-2.9s1.8-1.5,2.9-2c1.1-0.5,2.3-0.7,3.7-0.7
					c0.8,0,1.5,0.1,2.1,0.2c0.6,0.1,1.2,0.3,1.8,0.5c0.6,0.2,1.1,0.5,1.6,0.8c0.5,0.3,1,0.6,1.4,1l-2.4,2.9c-0.3-0.3-0.7-0.5-1-0.8
					c-0.3-0.2-0.7-0.4-1-0.6s-0.7-0.3-1.2-0.4c-0.4-0.1-0.9-0.1-1.4-0.1c-0.7,0-1.4,0.1-2,0.4c-0.6,0.3-1.1,0.7-1.6,1.2
					c-0.5,0.5-0.8,1.1-1.1,1.7c-0.3,0.7-0.4,1.4-0.4,2.1v0c0,0.8,0.1,1.5,0.4,2.2c0.3,0.7,0.6,1.3,1.1,1.8c0.5,0.5,1,0.9,1.7,1.2
					c0.6,0.3,1.4,0.4,2.1,0.4c1.4,0,2.6-0.4,3.6-1.1V179h-3.9v-3.3H18v7.6c-0.9,0.8-2,1.4-3.2,2C13.6,185.8,12.2,186,10.6,186z"/>
				<path class="st0" d="M21.8,168.2h3.9v14.1h8.7v3.5H21.8V168.2z"/>
				<path class="st0" d="M45.8,186c-1.4,0-2.6-0.2-3.7-0.7c-1.1-0.5-2.1-1.1-2.9-1.9s-1.5-1.8-1.9-2.9c-0.5-1.1-0.7-2.3-0.7-3.5v0
					c0-1.3,0.2-2.4,0.7-3.5c0.5-1.1,1.1-2.1,1.9-2.9c0.8-0.8,1.8-1.5,3-2c1.1-0.5,2.4-0.7,3.7-0.7c1.4,0,2.6,0.2,3.7,0.7
					c1.1,0.5,2.1,1.1,2.9,1.9s1.5,1.8,1.9,2.9c0.5,1.1,0.7,2.3,0.7,3.5v0.1c0,1.3-0.2,2.4-0.7,3.5s-1.1,2.1-1.9,2.9
					c-0.8,0.8-1.8,1.5-3,2C48.4,185.8,47.2,186,45.8,186z M45.8,182.5c0.8,0,1.5-0.1,2.1-0.4s1.2-0.7,1.7-1.2
					c0.5-0.5,0.8-1.1,1.1-1.7s0.4-1.4,0.4-2.1v0c0-0.8-0.1-1.5-0.4-2.1c-0.3-0.7-0.6-1.3-1.1-1.8c-0.5-0.5-1-0.9-1.7-1.2
					c-0.7-0.3-1.4-0.4-2.1-0.4c-0.8,0-1.5,0.1-2.1,0.4c-0.6,0.3-1.2,0.7-1.7,1.2c-0.5,0.5-0.8,1.1-1.1,1.7c-0.3,0.7-0.4,1.4-0.4,2.1
					v0.1c0,0.8,0.1,1.5,0.4,2.1c0.3,0.7,0.6,1.3,1.1,1.8c0.5,0.5,1,0.9,1.7,1.2C44.3,182.3,45.1,182.5,45.8,182.5z"/>
				<path class="st0" d="M58.6,168.2h8.1c2,0,3.5,0.5,4.6,1.6c0.8,0.8,1.2,1.8,1.2,3v0.1c0,0.5-0.1,0.9-0.2,1.3
					c-0.1,0.4-0.3,0.7-0.5,1c-0.2,0.3-0.4,0.6-0.7,0.8c-0.3,0.2-0.6,0.4-0.9,0.6c1,0.4,1.8,0.9,2.4,1.6c0.6,0.7,0.9,1.6,0.9,2.7v0
					c0,0.8-0.2,1.5-0.5,2.1s-0.8,1.1-1.3,1.5s-1.3,0.7-2.1,0.9c-0.8,0.2-1.7,0.3-2.7,0.3h-8.3V168.2z M65.9,175.3
					c0.9,0,1.5-0.1,2-0.4c0.5-0.3,0.8-0.8,0.8-1.4v0c0-0.6-0.2-1-0.7-1.3c-0.4-0.3-1.1-0.5-1.9-0.5h-3.8v3.7H65.9z M66.9,182.3
					c0.9,0,1.5-0.2,2-0.5c0.5-0.3,0.7-0.8,0.7-1.4v-0.1c0-0.6-0.2-1-0.7-1.4c-0.5-0.3-1.2-0.5-2.2-0.5h-4.5v3.9H66.9z"/>
				<path class="st0" d="M82.7,168h3.6l7.5,17.7h-4l-1.6-3.9h-7.4l-1.6,3.9h-3.9L82.7,168z M86.8,178.4l-2.3-5.7l-2.3,5.7H86.8z"/>
				<path class="st0" d="M96.5,168.2h3.9v14.1h8.7v3.5H96.5V168.2z"/>
				<path class="st0" d="M125.5,168h3.6l7.5,17.7h-4l-1.6-3.9h-7.4l-1.6,3.9H118L125.5,168z M129.6,178.4l-2.3-5.7l-2.3,5.7H129.6z"
					/>
				<path class="st0" d="M139.3,168.2h6.8c1.4,0,2.6,0.2,3.8,0.7c1.1,0.4,2.1,1.1,3,1.8c0.8,0.8,1.5,1.7,1.9,2.8
					c0.5,1.1,0.7,2.2,0.7,3.4v0.1c0,1.2-0.2,2.4-0.7,3.5c-0.5,1.1-1.1,2-1.9,2.8c-0.8,0.8-1.8,1.4-3,1.9c-1.1,0.5-2.4,0.7-3.8,0.7
					h-6.8V168.2z M146.2,182.2c0.8,0,1.5-0.1,2.2-0.4c0.7-0.3,1.2-0.6,1.7-1.1c0.5-0.5,0.8-1,1.1-1.7s0.4-1.3,0.4-2.1v0
					c0-0.8-0.1-1.5-0.4-2.1c-0.3-0.7-0.6-1.2-1.1-1.7c-0.5-0.5-1-0.8-1.7-1.1c-0.7-0.3-1.4-0.4-2.2-0.4h-3v10.6H146.2z"/>
				<path class="st0" d="M157.4,168.2h4.3l4.6,12.4l4.6-12.4h4.2l-7.1,17.7h-3.4L157.4,168.2z"/>
				<path class="st0" d="M177.7,168.2h13.2v3.4h-9.4v3.6h8.3v3.4h-8.3v3.7h9.5v3.4h-13.3V168.2z"/>
				<path class="st0" d="M194.5,168.2h3.6l8.2,10.8v-10.8h3.8v17.5h-3.3l-8.5-11.2v11.2h-3.8V168.2z"/>
				<path class="st0" d="M218.4,171.7h-5.3v-3.6h14.5v3.6h-5.3v14h-3.9V171.7z"/>
				<path class="st0" d="M230.8,168.2h3.9v17.5h-3.9V168.2z"/>
				<path class="st0" d="M245.3,186c-1.3,0-2.6-0.2-3.9-0.7c-1.3-0.5-2.5-1.2-3.5-2.1l2.3-2.7c0.8,0.7,1.6,1.2,2.5,1.6
					c0.8,0.4,1.8,0.6,2.8,0.6c0.8,0,1.4-0.1,1.9-0.4c0.4-0.3,0.7-0.7,0.7-1.2v0c0-0.3,0-0.5-0.1-0.7c-0.1-0.2-0.3-0.4-0.5-0.5
					s-0.6-0.3-1.1-0.5c-0.5-0.2-1.1-0.3-1.8-0.5c-0.9-0.2-1.7-0.5-2.4-0.7s-1.3-0.6-1.8-1c-0.5-0.4-0.9-0.9-1.2-1.5
					c-0.3-0.6-0.4-1.3-0.4-2.2v0c0-0.8,0.1-1.5,0.4-2.2c0.3-0.6,0.7-1.2,1.3-1.7c0.5-0.5,1.2-0.8,1.9-1.1c0.7-0.2,1.6-0.4,2.5-0.4
					c1.3,0,2.5,0.2,3.5,0.6c1.1,0.4,2.1,0.9,3,1.7l-2,2.9c-0.8-0.5-1.6-1-2.3-1.3c-0.8-0.3-1.5-0.5-2.3-0.5s-1.3,0.1-1.7,0.4
					c-0.4,0.3-0.6,0.7-0.6,1.1v0.1c0,0.3,0.1,0.5,0.2,0.7s0.3,0.4,0.6,0.6c0.3,0.2,0.7,0.3,1.2,0.5c0.5,0.2,1.1,0.3,1.9,0.5
					c0.9,0.2,1.7,0.5,2.4,0.8c0.7,0.3,1.3,0.6,1.8,1.1c0.5,0.4,0.8,0.9,1.1,1.4c0.2,0.6,0.4,1.2,0.4,2v0c0,0.9-0.2,1.6-0.5,2.3
					s-0.8,1.2-1.3,1.7c-0.6,0.5-1.2,0.8-2,1.1C247.1,185.9,246.2,186,245.3,186z"/>
				<path class="st0" d="M259.1,171.7h-5.3v-3.6h14.5v3.6H263v14h-3.9V171.7z"/>
				<path class="st0" d="M279,168.2h3.9v17.5H279V168.2z"/>
				<path class="st0" d="M287.2,168.2h3.6L299,179v-10.8h3.8v17.5h-3.3l-8.5-11.2v11.2h-3.8V168.2z"/>
				<path class="st0" d="M311.1,171.7h-5.3v-3.6h14.5v3.6H315v14h-3.9V171.7z"/>
				<path class="st0" d="M323.3,168.2h13.2v3.4h-9.4v3.6h8.3v3.4h-8.3v3.7h9.5v3.4h-13.3V168.2z"/>
				<path class="st0" d="M340.1,168.2h8c2.2,0,3.9,0.6,5.1,1.8c1,1,1.5,2.3,1.5,4v0c0,1.4-0.3,2.6-1,3.5c-0.7,0.9-1.6,1.6-2.7,2
					l4.3,6.3h-4.5l-3.8-5.6h-0.1h-3v5.6h-3.9V168.2z M347.8,176.7c1,0,1.7-0.2,2.2-0.7s0.8-1.1,0.8-1.8v0c0-0.8-0.3-1.5-0.8-1.9
					s-1.3-0.6-2.2-0.6h-3.8v5H347.8z"/>
				<path class="st0" d="M358.2,168.2h3.6L370,179v-10.8h3.8v17.5h-3.3l-8.5-11.2v11.2h-3.8V168.2z"/>
				<path class="st0" d="M378,168.2h13.2v3.4h-9.4v3.6h8.3v3.4h-8.3v3.7h9.5v3.4H378V168.2z"/>
				<path class="st0" d="M398.9,171.7h-5.3v-3.6h14.5v3.6h-5.3v14h-3.9V171.7z"/>
				<path class="st0" d="M418.6,168.2h3.6l8.2,10.8v-10.8h3.8v17.5h-3.3l-8.5-11.2v11.2h-3.8V168.2z"/>
				<path class="st0" d="M438.4,168.2h13.2v3.4h-9.4v3.6h8.3v3.4h-8.3v3.7h9.5v3.4h-13.3V168.2z"/>
				<path class="st0" d="M459.2,171.7h-5.3v-3.6h14.5v3.6h-5.3v14h-3.9V171.7z"/>
				<path class="st0" d="M470.1,168.2h4.1l3.6,11.9l3.9-11.9h3.3l3.9,11.9l3.6-11.9h4l-6,17.7h-3.4l-4-11.5l-4,11.5H476L470.1,168.2
					z"/>
				<path class="st0" d="M508.1,186c-1.4,0-2.6-0.2-3.7-0.7c-1.1-0.5-2.1-1.1-2.9-1.9s-1.5-1.8-1.9-2.9c-0.5-1.1-0.7-2.3-0.7-3.5v0
					c0-1.3,0.2-2.4,0.7-3.5c0.5-1.1,1.1-2.1,1.9-2.9c0.8-0.8,1.8-1.5,3-2c1.1-0.5,2.4-0.7,3.7-0.7c1.4,0,2.6,0.2,3.7,0.7
					c1.1,0.5,2.1,1.1,2.9,1.9c0.8,0.8,1.5,1.8,1.9,2.9s0.7,2.3,0.7,3.5v0.1c0,1.3-0.2,2.4-0.7,3.5s-1.1,2.1-1.9,2.9s-1.8,1.5-3,2
					C510.7,185.8,509.4,186,508.1,186z M508.1,182.5c0.8,0,1.5-0.1,2.1-0.4c0.7-0.3,1.2-0.7,1.7-1.2c0.5-0.5,0.8-1.1,1.1-1.7
					s0.4-1.4,0.4-2.1v0c0-0.8-0.1-1.5-0.4-2.1c-0.3-0.7-0.6-1.3-1.1-1.8c-0.5-0.5-1-0.9-1.7-1.2c-0.7-0.3-1.4-0.4-2.1-0.4
					c-0.8,0-1.5,0.1-2.1,0.4c-0.6,0.3-1.2,0.7-1.7,1.2s-0.8,1.1-1.1,1.7c-0.3,0.7-0.4,1.4-0.4,2.1v0.1c0,0.8,0.1,1.5,0.4,2.1
					c0.3,0.7,0.6,1.3,1.1,1.8c0.5,0.5,1,0.9,1.7,1.2C506.6,182.3,507.3,182.5,508.1,182.5z"/>
				<path class="st0" d="M520.8,168.2h8c2.2,0,3.9,0.6,5.1,1.8c1,1,1.5,2.3,1.5,4v0c0,1.4-0.3,2.6-1,3.5c-0.7,0.9-1.6,1.6-2.7,2
					l4.3,6.3h-4.5l-3.8-5.6h0h-3v5.6h-3.9V168.2z M528.6,176.7c1,0,1.7-0.2,2.2-0.7s0.8-1.1,0.8-1.8v0c0-0.8-0.3-1.5-0.8-1.9
					s-1.3-0.6-2.2-0.6h-3.8v5H528.6z"/>
				<path class="st0" d="M539,168.2h3.9v7.7l7.1-7.7h4.7l-7.1,7.4l7.5,10.1h-4.6l-5.4-7.5l-2,2.1v5.4H539V168.2z"/>
			</g>
		</g>
	</g>
</g>
</svg>
