<?xml version="1.0" encoding="utf-8"?>
<!-- Generator: Adobe Illustrator 21.1.0, SVG Export Plug-In . SVG Version: 6.00 Build 0)  -->
<svg version="1.1" id="Capa_1" xmlns="http://www.w3.org/2000/svg" xmlns:xlink="http://www.w3.org/1999/xlink" x="0px" y="0px"
	 viewBox="0 0 634 211" style="enable-background:new 0 0 634 211;" xml:space="preserve">
<style type="text/css">
	.st0{fill:#FFFFFF;}
	.st1{fill:#E30613;}
	.st2{enable-background:new    ;}
	.st3{fill:#F4992F;}
</style>
<title>Gain</title>
<desc>Created with Sketch.</desc>
<g id="Landing">
	<g id="Tablet" transform="translate(-67.000000, -601.000000)">
		<g id="Gain" transform="translate(67.000000, 601.000000)">
			<path id="Fill-1" class="st0" d="M137,154c-10.5,3.4-31,7.3-49.9,7.3c-27.8,0-47.9-6.3-62-18.2c-16-13.2-24.2-34.3-24.2-58.2
				C0.9,32.2,42.2,6,91.7,6c18.5,0,33.1,3,40.8,6.1L125,40.9c-7.8-3-17.3-5.1-32.2-5.1c-28.3,0-49.7,14.4-49.7,49.1
				c0,32.4,19.4,48,43.6,48c5.7,0,10.3-0.4,12.5-1.4v-32h-21V72.1H137V154z"/>
			<path id="Fill-3" class="st0" d="M228.6,96.8l-7.8-30.6c-2.3-9.1-5.2-22.7-7.5-32h-0.5c-2.3,9.3-5.2,23.3-7.3,32l-8,30.6H228.6z
				 M285.2,158.5h-41.5L233.4,123h-40.6l-9.6,35.5h-40.6L189.1,5.9H240L285.2,158.5z"/>
			<path id="Fill-5" class="st0" d="M484.6,158.5h-39.9L413.9,103c-8.2-14.6-18.2-34.5-24.6-50.3h-0.9c1.1,17.8,2.1,41,2.1,68.3
				v37.5h-36V6h42.9l30.1,54.7c8,13.6,17.6,33.2,24.2,48.5h0.5c-2.1-17.8-3.4-41.6-3.4-66.9V6h36v152.5H484.6z"/>
			<polygon id="Fill-7" class="st0" points="305,46.6 344,46.6 323,158.5 283.7,158.5 			"/>
			<path id="Fill-9" class="st1" d="M312.2,11.9c4.6-9.9,15.8-14.6,25-10.3c9.2,4.2,13,15.7,8.5,25.7s-15.8,14.6-25,10.3
				C311.4,33.3,307.6,21.8,312.2,11.9"/>
			<g class="st2">
				<path class="st0" d="M498.2,97.2h14.6l16.1,25.8L545,97.2h14.6v61.2h-13.2v-39.9l-17.2,26.1h-0.3l-17-25.8v39.7h-13.2V97.2
					H498.2z"/>
				<path class="st0" d="M590.7,127.2l-20.4-30.1h15.8l12.8,19.9l12.9-19.9h15.3L606.7,127l21.3,31.3h-15.8l-13.7-21l-13.8,21h-15.3
					L590.7,127.2z"/>
			</g>
			<path id="Fill-12" class="st3" d="M592.2,50.7c-3.4-17.4-13.3-44-28.5-44s-25,26.6-28.5,44H592.2z"/>
			<path id="Fill-14" class="st1" d="M616.2,79c-0.6,0.3-1.2,0.6-1.8,0.6c-0.7,0-1.2-0.2-1.8-0.4l-23.9-14.3l-23.9,14.3
				c-0.6,0.3-1.2,0.4-1.8,0.4c-0.7,0-1.2-0.1-1.8-0.6l-23.9-14.3L513.4,79c-0.6,0.3-1.2,0.6-1.8,0.6c-0.7,0-1.2-0.2-1.8-0.4
				L495,70.3c2.9,11.3,13.1,19.7,25.3,19.7H606c12.1,0,24.3-8.5,27.1-19.9L616.2,79z"/>
			<path id="Fill-16" class="st3" d="M499.5,56.9c-1.2,0-2.4,0.4-3.3,1.3c-0.9,0.9-1.3,2.1-1.3,3.3v8.4l17.4,10.5l23.9-14.3
				c1.1-0.7,2.4-0.7,3.6,0l23.9,14.3l23.9-14.3c1.1-0.7,2.4-0.7,3.6,0l23.9,14.3l17.4-10.5v-8.4c0-2.5-2.1-4.6-4.6-4.6H499.5z"/>
			<g class="st2">
				<path class="st0" d="M11.8,206.4c-1.6,0-2.9-0.2-4.2-0.8s-2.4-1.2-3.3-2.2c-0.9-0.9-1.6-2-2.2-3.3s-0.8-2.6-0.8-4.1l0,0
					c0-1.5,0.2-2.7,0.8-4s1.2-2.4,2.2-3.3s2-1.7,3.3-2.3s2.6-0.8,4.2-0.8c0.9,0,1.7,0.1,2.4,0.2c0.7,0.1,1.4,0.3,2,0.6
					c0.7,0.2,1.2,0.6,1.8,0.9c0.6,0.3,1.1,0.7,1.6,1.1l-2.7,3.3c-0.3-0.3-0.8-0.6-1.1-0.9c-0.3-0.2-0.8-0.5-1.1-0.7
					s-0.8-0.3-1.4-0.5c-0.5-0.1-1-0.1-1.6-0.1c-0.8,0-1.6,0.1-2.3,0.5c-0.7,0.3-1.2,0.8-1.8,1.4s-0.9,1.2-1.2,1.9
					c-0.3,0.8-0.5,1.6-0.5,2.4l0,0c0,0.9,0.1,1.7,0.5,2.5s0.7,1.5,1.2,2c0.6,0.6,1.1,1,1.9,1.4c0.7,0.3,1.6,0.5,2.4,0.5
					c1.6,0,2.9-0.5,4.1-1.2v-2.5h-4.4v-3.7h8.6v8.6c-1,0.9-2.3,1.6-3.6,2.3C15.2,206.2,13.6,206.4,11.8,206.4z"/>
				<path class="st0" d="M24.5,186.3h4.4v16h9.8v4H24.5V186.3z"/>
				<path class="st0" d="M51.6,206.4c-1.6,0-2.9-0.2-4.2-0.8s-2.4-1.2-3.3-2.2s-1.7-2-2.2-3.3c-0.6-1.2-0.8-2.6-0.8-4l0,0
					c0-1.5,0.2-2.7,0.8-4c0.6-1.2,1.2-2.4,2.2-3.3c0.9-0.9,2-1.7,3.4-2.3c1.2-0.6,2.7-0.8,4.2-0.8c1.6,0,2.9,0.2,4.2,0.8
					c1.2,0.6,2.4,1.2,3.3,2.2c0.9,0.9,1.7,2,2.2,3.3c0.6,1.2,0.8,2.6,0.8,4v0.1c0,1.5-0.2,2.7-0.8,4c-0.6,1.2-1.2,2.4-2.2,3.3
					c-0.9,0.9-2,1.7-3.4,2.3C54.6,206.2,53.2,206.4,51.6,206.4z M51.6,202.4c0.9,0,1.7-0.1,2.4-0.5c0.7-0.3,1.4-0.8,1.9-1.4
					s0.9-1.2,1.2-1.9s0.5-1.6,0.5-2.4l0,0c0-0.9-0.1-1.7-0.5-2.4c-0.3-0.8-0.7-1.5-1.2-2c-0.6-0.6-1.1-1-1.9-1.4
					c-0.8-0.3-1.6-0.5-2.4-0.5c-0.9,0-1.7,0.1-2.4,0.5c-0.7,0.3-1.4,0.8-1.9,1.4c-0.6,0.6-0.9,1.2-1.2,1.9c-0.3,0.8-0.5,1.6-0.5,2.4
					v0.1c0,0.9,0.1,1.7,0.5,2.4c0.3,0.8,0.7,1.5,1.2,2s1.1,1,1.9,1.4C50,202.2,50.9,202.4,51.6,202.4z"/>
				<path class="st0" d="M66.1,186.3h9.2c2.3,0,4,0.6,5.2,1.8c0.9,0.9,1.4,2,1.4,3.4v0.1c0,0.6-0.1,1-0.2,1.5s-0.3,0.8-0.6,1.1
					c-0.2,0.3-0.5,0.7-0.8,0.9s-0.7,0.5-1,0.7c1.1,0.5,2,1,2.7,1.8s1,1.8,1,3.1l0,0c0,0.9-0.2,1.7-0.6,2.4c-0.3,0.7-0.9,1.2-1.5,1.7
					s-1.5,0.8-2.4,1s-1.9,0.3-3.1,0.3H66C66.1,206.1,66.1,186.3,66.1,186.3z M74.4,194.3c1,0,1.7-0.1,2.3-0.5
					c0.6-0.3,0.9-0.9,0.9-1.6l0,0c0-0.7-0.2-1.1-0.8-1.5c-0.5-0.3-1.2-0.6-2.2-0.6h-4.3v4.2L74.4,194.3L74.4,194.3z M75.5,202.2
					c1,0,1.7-0.2,2.3-0.6c0.6-0.3,0.8-0.9,0.8-1.6v-0.1c0-0.7-0.2-1.1-0.8-1.6c-0.6-0.3-1.4-0.6-2.5-0.6h-5.1v4.4h5.3V202.2z"/>
				<path class="st0" d="M93.4,186h4.1l8.5,20h-4.5l-1.8-4.4h-8.4l-1.8,4.4H85L93.4,186z M98,197.8l-2.6-6.5l-2.6,6.5H98z"/>
				<path class="st0" d="M109,186.3h4.4v16h9.8v4H109V186.3z"/>
				<path class="st0" d="M141.8,186h4.1l8.5,20h-4.5l-1.8-4.4h-8.4l-1.8,4.4h-4.5L141.8,186z M146.5,197.8l-2.6-6.5l-2.6,6.5H146.5z
					"/>
				<path class="st0" d="M157.5,186.3h7.7c1.6,0,2.9,0.2,4.3,0.8c1.2,0.5,2.4,1.2,3.4,2c0.9,0.9,1.7,1.9,2.2,3.2
					c0.6,1.2,0.8,2.5,0.8,3.8v0.1c0,1.4-0.2,2.7-0.8,4c-0.6,1.2-1.2,2.3-2.2,3.2s-2,1.6-3.4,2.2c-1.2,0.6-2.7,0.8-4.3,0.8h-7.7
					V186.3z M165.3,202.1c0.9,0,1.7-0.1,2.5-0.5c0.8-0.3,1.4-0.7,1.9-1.2c0.6-0.6,0.9-1.1,1.2-1.9c0.3-0.8,0.5-1.5,0.5-2.4l0,0
					c0-0.9-0.1-1.7-0.5-2.4c-0.3-0.8-0.7-1.4-1.2-1.9c-0.6-0.6-1.1-0.9-1.9-1.2c-0.8-0.3-1.6-0.5-2.5-0.5h-3.4v12L165.3,202.1
					L165.3,202.1z"/>
				<path class="st0" d="M177.9,186.3h4.9l5.2,14l5.2-14h4.8l-8,20h-3.8L177.9,186.3z"/>
				<path class="st0" d="M200.9,186.3h14.9v3.8h-10.6v4.1h9.4v3.8h-9.4v4.2H216v3.8h-15.1V186.3z"/>
				<path class="st0" d="M219.9,186.3h4.1l9.3,12.2v-12.2h4.3v19.8h-3.7l-9.6-12.7v12.7H220v-19.8H219.9z"/>
				<path class="st0" d="M247,190.2h-6v-4.1h16.4v4.1h-6V206H247V190.2z"/>
				<path class="st0" d="M261,186.3h4.4v19.8H261V186.3z"/>
				<path class="st0" d="M277.4,206.4c-1.5,0-2.9-0.2-4.4-0.8s-2.8-1.4-4-2.4l2.6-3.1c0.9,0.8,1.8,1.4,2.8,1.8
					c0.9,0.5,2,0.7,3.2,0.7c0.9,0,1.6-0.1,2.2-0.5c0.5-0.3,0.8-0.8,0.8-1.4l0,0c0-0.3,0-0.6-0.1-0.8s-0.3-0.5-0.6-0.6
					c-0.2-0.1-0.7-0.3-1.2-0.6c-0.6-0.2-1.2-0.3-2-0.6c-1-0.2-1.9-0.6-2.7-0.8c-0.8-0.2-1.5-0.7-2-1.1c-0.6-0.5-1-1-1.4-1.7
					c-0.3-0.7-0.5-1.5-0.5-2.5l0,0c0-0.9,0.1-1.7,0.5-2.5c0.3-0.7,0.8-1.4,1.5-1.9c0.6-0.6,1.4-0.9,2.2-1.2c0.8-0.2,1.8-0.5,2.8-0.5
					c1.5,0,2.8,0.2,4,0.7s2.4,1,3.4,1.9l-2.3,3.3c-0.9-0.6-1.8-1.1-2.6-1.5c-0.9-0.3-1.7-0.6-2.6-0.6s-1.5,0.1-1.9,0.5
					c-0.5,0.3-0.7,0.8-0.7,1.2v0.1c0,0.3,0.1,0.6,0.2,0.8s0.3,0.5,0.7,0.7c0.3,0.2,0.8,0.3,1.4,0.6c0.6,0.2,1.2,0.3,2.2,0.6
					c1,0.2,1.9,0.6,2.7,0.9c0.8,0.3,1.5,0.7,2,1.2c0.6,0.5,0.9,1,1.2,1.6c0.2,0.7,0.5,1.4,0.5,2.3l0,0c0,1-0.2,1.8-0.6,2.6
					s-0.9,1.4-1.5,1.9c-0.7,0.6-1.4,0.9-2.3,1.2C279.5,206.3,278.4,206.4,277.4,206.4z"/>
				<path class="st0" d="M293,190.2h-6v-4.1h16.4v4.1h-6V206H293V190.2z"/>
				<path class="st0" d="M315.6,186.3h4.4v19.8h-4.4V186.3z"/>
				<path class="st0" d="M324.8,186.3h4.1l9.3,12.2v-12.2h4.3v19.8h-3.7l-9.6-12.7v12.7h-4.3L324.8,186.3L324.8,186.3z"/>
				<path class="st0" d="M351.9,190.2h-6v-4.1h16.4v4.1h-6V206h-4.4V190.2z"/>
				<path class="st0" d="M365.7,186.3h14.9v3.8H370v4.1h9.4v3.8H370v4.2h10.8v3.8h-15.1L365.7,186.3L365.7,186.3z"/>
				<path class="st0" d="M384.7,186.3h9.1c2.5,0,4.4,0.7,5.8,2c1.1,1.1,1.7,2.6,1.7,4.5l0,0c0,1.6-0.3,2.9-1.1,4
					c-0.8,1-1.8,1.8-3.1,2.3l4.9,7.1h-5.1l-4.3-6.3h-0.1H389v6.3h-4.4v-19.9L384.7,186.3L384.7,186.3z M393.4,195.9
					c1.1,0,1.9-0.2,2.5-0.8s0.9-1.2,0.9-2l0,0c0-0.9-0.3-1.7-0.9-2.2s-1.5-0.7-2.5-0.7h-4.3v5.7H393.4z"/>
				<path class="st0" d="M405.2,186.3h4.1l9.3,12.2v-12.2h4.3v19.8h-3.7l-9.6-12.7v12.7h-4.3L405.2,186.3L405.2,186.3z"/>
				<path class="st0" d="M427.6,186.3h14.9v3.8h-10.6v4.1h9.4v3.8h-9.4v4.2h10.8v3.8h-15.1L427.6,186.3L427.6,186.3z"/>
				<path class="st0" d="M451.3,190.2h-6v-4.1h16.4v4.1h-6V206h-4.4V190.2L451.3,190.2z"/>
				<path class="st0" d="M473.5,186.3h4.1l9.3,12.2v-12.2h4.3v19.8h-3.7l-9.6-12.7v12.7h-4.3L473.5,186.3L473.5,186.3z"/>
				<path class="st0" d="M496,186.3h14.9v3.8h-10.6v4.1h9.4v3.8h-9.4v4.2H511v3.8h-15V186.3L496,186.3z"/>
				<path class="st0" d="M519.5,190.2h-6v-4.1h16.4v4.1h-6V206h-4.4V190.2L519.5,190.2z"/>
				<path class="st0" d="M531.8,186.3h4.6l4.1,13.5l4.4-13.5h3.7l4.4,13.5l4.1-13.5h4.5l-6.8,20H551l-4.5-13l-4.5,13h-3.5
					L531.8,186.3z"/>
				<path class="st0" d="M574.8,206.4c-1.6,0-2.9-0.2-4.2-0.8s-2.4-1.2-3.3-2.2s-1.7-2-2.2-3.3c-0.6-1.2-0.8-2.6-0.8-4l0,0
					c0-1.5,0.2-2.7,0.8-4c0.6-1.2,1.2-2.4,2.2-3.3c0.9-0.9,2-1.7,3.4-2.3c1.2-0.6,2.7-0.8,4.2-0.8c1.6,0,2.9,0.2,4.2,0.8
					c1.2,0.6,2.4,1.2,3.3,2.2c0.9,0.9,1.7,2,2.2,3.3c0.5,1.2,0.8,2.6,0.8,4v0.1c0,1.5-0.2,2.7-0.8,4c-0.6,1.2-1.2,2.4-2.2,3.3
					c-0.9,0.9-2,1.7-3.4,2.3C577.8,206.2,576.3,206.4,574.8,206.4z M574.8,202.4c0.9,0,1.7-0.1,2.4-0.5c0.8-0.3,1.4-0.8,1.9-1.4
					s0.9-1.2,1.2-1.9s0.5-1.6,0.5-2.4l0,0c0-0.9-0.1-1.7-0.5-2.4c-0.3-0.8-0.7-1.5-1.2-2c-0.6-0.6-1.1-1-1.9-1.4
					c-0.8-0.3-1.6-0.5-2.4-0.5c-0.9,0-1.7,0.1-2.4,0.5c-0.7,0.3-1.4,0.8-1.9,1.4c-0.6,0.6-0.9,1.2-1.2,1.9c-0.3,0.8-0.5,1.6-0.5,2.4
					v0.1c0,0.9,0.1,1.7,0.5,2.4c0.3,0.8,0.7,1.5,1.2,2s1.1,1,1.9,1.4C573.1,202.2,573.9,202.4,574.8,202.4z"/>
				<path class="st0" d="M589.2,186.3h9.1c2.5,0,4.4,0.7,5.8,2c1.1,1.1,1.7,2.6,1.7,4.5l0,0c0,1.6-0.3,2.9-1.1,4
					c-0.8,1-1.8,1.8-3.1,2.3l4.9,7.1h-5.1l-4.3-6.3l0,0h-3.4v6.3h-4.4L589.2,186.3L589.2,186.3z M598,195.9c1.1,0,1.9-0.2,2.5-0.8
					s0.9-1.2,0.9-2l0,0c0-0.9-0.3-1.7-0.9-2.2c-0.6-0.5-1.5-0.7-2.5-0.7h-4.3v5.7H598z"/>
				<path class="st0" d="M609.8,186.3h4.4v8.7l8-8.7h5.3l-8,8.4l8.5,11.4h-5.2l-6.1-8.5l-2.3,2.4v6.1h-4.6L609.8,186.3L609.8,186.3z
					"/>
			</g>
		</g>
	</g>
</g>
</svg>
