<?xml version="1.0" encoding="UTF-8" standalone="no"?>
<svg width="634px" height="187px" viewBox="0 0 634 187" version="1.1" xmlns="http://www.w3.org/2000/svg" xmlns:xlink="http://www.w3.org/1999/xlink">
    <!-- Generator: Sketch 49.1 (51147) - http://www.bohemiancoding.com/sketch -->
    <title>Gain</title>
    <desc>Created with Sketch.</desc>
    <defs></defs>
    <g id="Landing" stroke="none" stroke-width="1" fill="none" fill-rule="evenodd">
        <g id="Tablet" transform="translate(-67.000000, -601.000000)">
            <g id="Gain" transform="translate(67.000000, 601.000000)">
                <path d="M137.0454,153.9995 C126.5454,157.3995 106.0454,161.3005 87.1454,161.3005 C59.3454,161.3005 39.2454,154.9995 25.1454,143.1005 C9.1454,129.8995 0.9454,108.8005 0.9454,84.8995 C0.9454,32.1995 42.2454,5.9995 91.7454,5.9995 C110.2454,5.9995 124.8454,8.9995 132.5454,12.1005 L125.0454,40.8995 C117.2454,37.8995 107.7454,35.7995 92.8454,35.7995 C64.5454,35.7995 43.1454,50.1995 43.1454,84.8995 C43.1454,117.3005 62.5454,132.8995 86.7454,132.8995 C92.4454,132.8995 97.0454,132.4995 99.2454,131.4995 L99.2454,99.4995 L78.2454,99.4995 L78.2454,72.1005 L137.0454,72.1005 L137.0454,153.9995 Z" id="Fill-1" fill="#FFFFFF"></path>
                <path d="M228.6455,96.8002 L220.8455,66.1992 C218.5455,57.1002 215.6455,43.5002 213.3455,34.1992 L212.8455,34.1992 C210.5455,43.5002 207.6455,57.5002 205.5455,66.1992 L197.5455,96.8002 L228.6455,96.8002 Z M285.2455,158.4992 L243.7455,158.4992 L233.4455,122.9992 L192.8455,122.9992 L183.2455,158.4992 L142.6455,158.4992 L189.1455,5.9002 L240.0455,5.9002 L285.2455,158.4992 Z" id="Fill-3" fill="#FFFFFF"></path>
                <path d="M484.645,158.4995 L444.746,158.4995 L413.946,102.9995 C405.746,88.3995 395.746,68.4995 389.345,52.6995 L388.446,52.6995 C389.545,70.4995 390.545,93.6995 390.545,120.9995 L390.545,158.4995 L354.545,158.4995 L354.545,5.9995 L397.446,5.9995 L427.545,60.6995 C435.545,74.2995 445.145,93.8995 451.746,109.1995 L452.246,109.1995 C450.145,91.3995 448.845,67.6005 448.845,42.2995 L448.845,5.9995 L484.845,5.9995 L484.845,158.4995 L484.645,158.4995 Z" id="Fill-5" fill="#FFFFFF"></path>
                <polygon id="Fill-7" fill="#FFFFFF" points="305.0454 46.6001 344.0454 46.6001 323.0454 158.4991 283.7454 158.4991"></polygon>
                <path d="M312.1748,11.8867 C316.7408,1.9497 327.9268,-2.6663 337.1618,1.5767 C346.3958,5.8197 350.1798,17.3137 345.6148,27.2507 C341.0498,37.1877 329.8628,41.8037 320.6288,37.5607 C311.3938,33.3187 307.6098,21.8237 312.1748,11.8867" id="Fill-9" fill="#E30613"></path>
                <text id="MX" font-family="GothamBold, Gotham Bold" font-size="79.2186" font-weight="bold" fill="#FFFFFF">
                    <tspan x="504.1519" y="144.134094">MX</tspan>
                </text>
                <path d="M596.0454,46.6001 C592.9454,30.8001 583.9454,6.7001 570.2454,6.7001 C556.5454,6.7001 547.5454,30.8001 544.4454,46.6001 L596.0454,46.6001 Z" id="Fill-12" fill="#F4992F"></path>
                <path d="M617.8452,72.1997 C617.3452,72.4997 616.7452,72.6997 616.2452,72.6997 C615.6452,72.6997 615.1452,72.4997 614.6452,72.2997 L592.9462,59.2997 L571.2452,72.2997 C570.7452,72.5997 570.1452,72.6997 569.6452,72.6997 C569.0452,72.6997 568.5452,72.5997 568.0452,72.1997 L546.3452,59.1997 L524.6452,72.1997 C524.1452,72.4997 523.5452,72.6997 523.0452,72.6997 C522.4462,72.6997 521.9462,72.4997 521.4462,72.2997 L508.0452,64.1997 C510.6452,74.3997 519.9462,82.0997 530.9462,82.0997 L608.5452,82.0997 C619.5452,82.0997 630.5452,74.3997 633.1452,64.0997 L617.8452,72.1997 Z" id="Fill-14" fill="#E30613"></path>
                <path d="M512.0454,52.1997 C510.9454,52.1997 509.8454,52.5997 509.0454,53.3997 C508.2454,54.1997 507.8454,55.2997 507.8454,56.3997 L507.8454,63.9997 L523.6454,73.4997 L545.3454,60.4997 C546.3454,59.8997 547.5454,59.8997 548.6454,60.4997 L570.3454,73.4997 L592.0454,60.4997 C593.0454,59.8997 594.2454,59.8997 595.3454,60.4997 L617.0454,73.4997 L632.8454,63.9997 L632.8454,56.3997 C632.8454,54.0997 630.9454,52.1997 628.6454,52.1997 L512.0454,52.1997 Z" id="Fill-16" fill="#F4992F"></path>
                <text id="GLOBAL-ADVENTIST-INTERNET-NETWORK" font-family="GothamBold, Gotham Bold" font-size="25.0683" font-weight="bold" fill="#FFFFFF">
                    <tspan x="0" y="185.721428">GLOBAL ADVENTIST INTERNET NETWORK</tspan>
                </text>
            </g>
        </g>
    </g>
</svg>