<?xml version="1.0" encoding="UTF-8" standalone="no"?>
<svg width="213px" height="51px" viewBox="0 0 213 51" version="1.1" xmlns="http://www.w3.org/2000/svg" xmlns:xlink="http://www.w3.org/1999/xlink">
    <!-- Generator: Sketch 49.1 (51147) - http://www.bohemiancoding.com/sketch -->
    <title>Iglesia_Adventista_Del_Septimo_Dia</title>
    <desc>Created with Sketch.</desc>
    <defs>
        <polygon id="path-1" points="0 51 212.985478 51 212.985478 0.00523799006 0 0.00523799006"></polygon>
    </defs>
    <g id="Landing" stroke="none" stroke-width="1" fill="none" fill-rule="evenodd">
        <g id="Tablet" transform="translate(-510.000000, -17.000000)">
            <g id="Header" transform="translate(43.000000, 17.000000)">
                <g id="Iglesia_Adventista_Del_Septimo_Dia" transform="translate(467.000000, 0.000000)">
                    <polygon id="Fill-1" fill="#FEFEFE" points="63 25 63.581394 23.4313732 64.6279089 23.4313732 64.6279089 12.5490246 63 12.5490246 63 11 68 11 67.418606 12.5490246 66.3720911 12.5490246 66.3720911 23.4313732 68 23.4313732 68 25"></polygon>
                    <g id="Group-39">
                        <path d="M75.4080167,18.3024384 C75.4080167,16.7819851 74.6886256,16.0217443 73.2692529,16.0217443 C71.8499083,16.0217443 71.1304891,16.8014727 71.1304891,18.321926 C71.1304891,19.764429 71.8499083,20.4856665 73.2886906,20.4856665 C74.7080632,20.4856665 75.4080167,19.7449415 75.4080167,18.3024384 M76.5746151,26.6650304 C76.5746151,26.0997217 76.4190855,25.7293733 76.1079701,25.534413 C75.7774452,25.3394809 75.1552425,25.2420149 74.2219806,25.2420149 L72.4331794,25.2420149 C70.9749595,25.2420149 70.2555402,25.8658145 70.2555402,27.1328448 C70.2555402,28.224487 71.1110514,28.7897675 72.8220456,28.7897675 C75.3302378,28.7897675 76.5746151,28.0880177 76.5746151,26.6650304 M68.6222968,27.1913639 C68.6222968,25.8462987 69.3805914,24.9886201 70.8971806,24.6182435 C70.2944437,24.3258454 69.9833283,23.8190276 69.9833283,23.1562529 C69.9833283,22.4350155 70.4110698,21.8307035 71.2471433,21.3238857 C70.0611072,20.8365555 69.4389326,19.5890127 69.4389326,18.3804169 C69.4389326,15.9437659 70.9554937,14.7741734 73.327594,14.7741734 C73.8719898,14.7741734 74.3386348,14.8326643 74.7469386,14.9691055 L78.3439505,14.9691055 L77.8384301,16.2946549 L76.4773986,16.2946549 C76.8857024,16.8404478 77.0995732,17.5227383 77.0995732,18.321926 C77.0995732,20.4856665 75.5246709,21.6747747 73.2692529,21.6747747 C72.9192621,21.6747747 72.6470783,21.6552871 72.4526452,21.6162838 C71.8110048,21.9671728 71.4999175,22.3960121 71.4999175,22.8833424 C71.4999175,23.4096477 72.0248756,23.6825583 73.0359444,23.6825583 L74.8052798,23.6825583 C76.9051401,23.6825583 78.2078586,24.6377311 78.2078586,26.5090734 C78.2078586,28.9067493 76.4190855,30.0958294 72.8415114,30.0958294 C70.4110698,30.0958294 68.6222968,29.2576383 68.6222968,27.1913639" id="Fill-2" fill="#FEFEFE"></path>
                        <polygon id="Fill-4" fill="#FEFEFE" points="79.9964097 25.4174679 79.9964097 11.2654044 81.707432 10.6026297 81.707432 25.4174679"></polygon>
                        <path d="M85.8486486,19.1601452 L91.1566828,19.1601452 C91.137217,17.3862689 90.3594847,16.1776731 88.6290528,16.1776731 C86.9958094,16.1776731 86.023644,17.2888029 85.8486486,19.1601452 M92.9454558,19.4915467 L92.9454558,20.5246698 L85.8097732,20.5246698 C85.8680863,22.8833424 87.0541505,24.1504009 89.1345732,24.1504009 C90.145642,24.1504009 91.1761205,23.9554688 91.9927281,23.6435831 L92.4788389,24.9301292 C91.4094289,25.3979718 90.476167,25.6123915 89.0567943,25.6123915 C86.0819852,25.6123915 84.0404098,23.7605367 84.0404098,20.2712468 C84.0404098,16.8404478 85.8875521,14.7741734 88.6484905,14.7741734 C91.3122124,14.7741734 92.9454558,16.6455157 92.9454558,19.4915467" id="Fill-6" fill="#FEFEFE"></path>
                        <path d="M97.8255294,25.6123971 C96.3672813,25.6123971 95.3562406,25.3784617 94.5590425,24.9496224 L95.0645909,23.6241012 C95.7451067,23.9164711 96.8728298,24.228385 97.8644328,24.228385 C99.5948647,24.228385 100.333722,23.6241012 100.333722,22.6884159 C100.333722,21.9086876 99.8087355,21.4408449 97.7672163,20.6611166 C95.7451067,19.8813883 94.5396329,19.2576169 94.5396329,17.5422033 C94.5396329,15.768327 96.1145352,14.774179 98.447704,14.774179 C99.711547,14.774179 100.800367,15.0470896 101.772532,15.4759289 L101.247546,16.859941 C100.353159,16.4700769 99.3421186,16.1776787 98.3310778,16.1776787 C96.9311428,16.1776787 96.1728482,16.6650089 96.1728482,17.4447373 C96.1728482,18.3219316 96.8533921,18.6728207 98.8560359,19.4330332 C100.839242,20.1737864 101.986403,20.8560487 101.986403,22.532459 C101.986403,24.5597583 100.372625,25.6123971 97.8255294,25.6123971" id="Fill-8" fill="#FEFEFE"></path>
                        <mask id="mask-2" fill="white">
                            <use xlink:href="#path-1"></use>
                        </mask>
                        <g id="Clip-11"></g>
                        <path d="M104.066693,25.4174594 L105.777688,25.4174594 L105.777688,14.9690773 L104.066693,14.9690773 L104.066693,25.4174594 Z M105.933245,12.1425903 C105.933245,12.8833153 105.4666,13.2342043 104.941642,13.2342043 C104.377781,13.2342043 103.930573,12.8833153 103.930573,12.1425903 C103.930573,11.3823777 104.377781,11.0509763 104.941642,11.0509763 C105.4666,11.0509763 105.933245,11.3823777 105.933245,12.1425903 Z" id="Fill-10" fill="#FEFEFE" mask="url(#mask-2)"></path>
                        <path d="M113.146538,20.3687157 C110.541129,20.4661817 109.705056,21.2069349 109.705056,22.5324562 C109.705056,23.7020486 110.482788,24.2283822 111.610511,24.2283822 C113.360409,24.2283822 114.682565,23.2732093 114.682565,21.24591 L114.682565,20.310253 L113.146538,20.3687157 Z M116.374122,18.3024412 L116.374122,25.4174622 L115.129744,25.4174622 L114.799219,23.935984 L114.72144,23.935984 C113.807588,25.086089 112.971543,25.6123943 111.221645,25.6123943 C109.335656,25.6123943 107.935721,24.6377339 107.935721,22.5129967 C107.935721,20.4272066 109.530089,19.2771017 112.932667,19.1796356 L114.702003,19.1211447 L114.702003,18.4973733 C114.702003,16.7624722 113.904805,16.1776759 112.543801,16.1776759 C111.454954,16.1776759 110.463379,16.5675401 109.607867,16.97692 L109.082881,15.6903457 C109.996706,15.2030155 111.279986,14.7936638 112.641018,14.7936638 C115.16862,14.7936638 116.374122,15.8657902 116.374122,18.3024412 Z" id="Fill-12" fill="#FEFEFE" mask="url(#mask-2)"></path>
                        <path d="M129.070096,15.3394849 C128.953441,15.0275992 128.545138,13.7410249 128.409018,13.2537229 C128.214585,14.0529106 127.96181,14.8911298 127.806281,15.3394849 L126.23135,19.5500122 L130.62556,19.5500122 L129.070096,15.3394849 Z M131.150518,21.1094689 L125.648079,21.1094689 L123.995398,25.4174622 L122.226063,25.4174622 L127.650723,11.4408432 L129.225625,11.4408432 L134.630876,25.4174622 L132.822637,25.4174622 L131.150518,21.1094689 Z" id="Fill-13" fill="#FEFEFE" mask="url(#mask-2)"></path>
                        <path d="M143.068996,20.5441574 L143.068996,20.2322717 C143.068996,17.6396637 142.369015,16.1971888 140.055284,16.1971888 C138.208169,16.1971888 137.294317,17.7761331 137.294317,20.2517592 C137.294317,22.7469012 138.208169,24.189376 140.074721,24.189376 C142.271798,24.189376 143.068996,22.9808084 143.068996,20.5441574 M135.524982,20.2127841 C135.524982,16.6260282 137.236004,14.7741734 139.821947,14.7741734 C141.435725,14.7741734 142.407918,15.4564357 143.049558,16.3141143 L143.166213,16.3141143 C143.127309,15.982741 143.049558,15.1640375 143.049558,14.7741734 L143.049558,11.2653959 L144.760553,10.6026212 L144.760553,25.4174594 L143.380083,25.4174594 L143.127309,24.0139315 L143.049558,24.0139315 C142.427356,24.9106416 141.435725,25.6123915 139.802509,25.6123915 C137.216538,25.6123915 135.524982,23.7995119 135.524982,20.2127841" id="Fill-14" fill="#FEFEFE" mask="url(#mask-2)"></path>
                        <path d="M146.218601,14.9690998 L148.04625,14.9690998 L150.26282,21.128948 C150.573908,21.9866548 150.982212,23.2537133 151.098866,23.8970004 L151.176645,23.8970004 C151.312737,23.2537133 151.759916,21.9671672 152.051565,21.128948 L154.268108,14.9690998 L156.095785,14.9690998 L152.129372,25.4174819 L150.165604,25.4174819 L146.218601,14.9690998 Z" id="Fill-15" fill="#FEFEFE" mask="url(#mask-2)"></path>
                        <path d="M158.584328,19.1601452 L163.892363,19.1601452 C163.872897,17.3862689 163.095193,16.1776731 161.364733,16.1776731 C159.731489,16.1776731 158.759324,17.2888029 158.584328,19.1601452 M165.681136,19.4915467 L165.681136,20.5246698 L158.545453,20.5246698 C158.603766,22.8833424 159.78983,24.1504009 161.870253,24.1504009 C162.881322,24.1504009 163.9118,23.9554688 164.728408,23.6435831 L165.214491,24.9301292 C164.145137,25.3979718 163.211847,25.6123915 161.792474,25.6123915 C158.817665,25.6123915 156.776118,23.7605367 156.776118,20.2712468 C156.776118,16.8404478 158.623232,14.7741734 161.38417,14.7741734 C164.04792,14.7741734 165.681136,16.6455157 165.681136,19.4915467" id="Fill-16" fill="#FEFEFE" mask="url(#mask-2)"></path>
                        <path d="M176.724732,18.6143298 L176.724732,25.417465 L175.033147,25.417465 L175.033147,18.7312834 C175.033147,17.0548731 174.294319,16.2166539 172.699979,16.2166539 C170.386219,16.2166539 169.647363,17.5616909 169.647363,19.9983419 L169.647363,25.417465 L167.936368,25.417465 L167.936368,14.9691111 L169.316809,14.9691111 L169.569612,16.3920984 L169.6668,16.3920984 C170.347316,15.3004844 171.630597,14.774179 172.952725,14.774179 C175.441451,14.774179 176.724732,15.9242839 176.724732,18.6143298" id="Fill-17" fill="#FEFEFE" mask="url(#mask-2)"></path>
                        <path d="M183.685245,23.9554773 L184.151862,25.1835325 C183.782462,25.4174679 183.043605,25.6123999 182.246435,25.6123999 C180.613219,25.6123999 179.193847,24.9106219 179.193847,22.376533 L179.193847,13.2147252 L180.904869,12.571438 L180.904869,14.9691139 L183.918582,14.9691139 L183.918582,16.2946352 L180.904869,16.2946352 L180.904869,22.3375297 C180.904869,23.6045882 181.585357,24.2089002 182.538084,24.2089002 C182.92695,24.2089002 183.451909,24.0724309 183.685245,23.9554773" id="Fill-18" fill="#FEFEFE" mask="url(#mask-2)"></path>
                        <path d="M185.687659,25.4174594 L187.398653,25.4174594 L187.398653,14.9690773 L185.687659,14.9690773 L185.687659,25.4174594 Z M187.55421,12.1425903 C187.55421,12.8833153 187.087565,13.2342043 186.562607,13.2342043 C185.998746,13.2342043 185.551567,12.8833153 185.551567,12.1425903 C185.551567,11.3823777 185.998746,11.0509763 186.562607,11.0509763 C187.087565,11.0509763 187.55421,11.3823777 187.55421,12.1425903 Z" id="Fill-19" fill="#FEFEFE" mask="url(#mask-2)"></path>
                        <path d="M192.939824,25.6123971 C191.481576,25.6123971 190.470535,25.3784617 189.673365,24.9496224 L190.178886,23.6241012 C190.859401,23.9164711 191.987124,24.228385 192.978728,24.228385 C194.709159,24.228385 195.448016,23.6241012 195.448016,22.6884159 C195.448016,21.9086876 194.92303,21.4408449 192.881511,20.6611166 C190.859401,19.8813883 189.653928,19.2576169 189.653928,17.5422033 C189.653928,15.768327 191.22883,14.774179 193.561999,14.774179 C194.825842,14.774179 195.914661,15.0470896 196.886827,15.4759289 L196.361841,16.859941 C195.467454,16.4700769 194.456413,16.1776787 193.445373,16.1776787 C192.045438,16.1776787 191.287143,16.6650089 191.287143,17.4447373 C191.287143,18.3219316 191.967687,18.6728207 193.970331,19.4330332 C195.953537,20.1737864 197.100697,20.8560487 197.100697,22.532459 C197.100697,24.5597583 195.48692,25.6123971 192.939824,25.6123971" id="Fill-20" fill="#FEFEFE" mask="url(#mask-2)"></path>
                        <path d="M203.302964,23.9554773 L203.769581,25.1835325 C203.40018,25.4174679 202.661323,25.6123999 201.864153,25.6123999 C200.230938,25.6123999 198.811565,24.9106219 198.811565,22.376533 L198.811565,13.2147252 L200.522588,12.571438 L200.522588,14.9691139 L203.5363,14.9691139 L203.5363,16.2946352 L200.522588,16.2946352 L200.522588,22.3375297 C200.522588,23.6045882 201.203075,24.2089002 202.155803,24.2089002 C202.544669,24.2089002 203.069627,24.0724309 203.302964,23.9554773" id="Fill-21" fill="#FEFEFE" mask="url(#mask-2)"></path>
                        <path d="M209.757897,20.3687157 C207.152489,20.4661817 206.316415,21.2069349 206.316415,22.5324562 C206.316415,23.7020486 207.094147,24.2283822 208.22187,24.2283822 C209.971768,24.2283822 211.293924,23.2732093 211.293924,21.24591 L211.293924,20.310253 L209.757897,20.3687157 Z M212.985481,18.3024412 L212.985481,25.4174622 L211.741103,25.4174622 L211.410578,23.935984 L211.3328,23.935984 C210.418975,25.086089 209.58293,25.6123943 207.833004,25.6123943 C205.947015,25.6123943 204.54708,24.6377339 204.54708,22.5129967 C204.54708,20.4272066 206.141448,19.2771017 209.544027,19.1796356 L211.313362,19.1211447 L211.313362,18.4973733 C211.313362,16.7624722 210.516192,16.1776759 209.15516,16.1776759 C208.066313,16.1776759 207.074738,16.5675401 206.219227,16.97692 L205.69424,15.6903457 C206.608065,15.2030155 207.891345,14.7936638 209.252377,14.7936638 C211.779979,14.7936638 212.985481,15.8657902 212.985481,18.3024412 Z" id="Fill-22" fill="#FEFEFE" mask="url(#mask-2)"></path>
                        <path d="M70.8391541,41.4483505 L70.8391541,41.1364648 C70.8391541,38.5438569 70.1392006,37.1013538 67.8254414,37.1013538 C65.9783272,37.1013538 65.064503,38.6803262 65.064503,41.1559524 C65.064503,43.6510662 65.9783272,45.0935692 67.8448791,45.0935692 C70.0419841,45.0935692 70.8391541,43.8850015 70.8391541,41.4483505 M63.2951395,41.1169491 C63.2951395,37.5302213 65.0061618,35.6783665 67.5921049,35.6783665 C69.2059106,35.6783665 70.178076,36.3606007 70.8197164,37.2183075 L70.9363706,37.2183075 C70.8974671,36.8869342 70.8197164,36.0682307 70.8197164,35.6783665 L70.8197164,32.1695891 L72.5307106,31.5068144 L72.5307106,46.3216526 L71.1502414,46.3216526 L70.8974671,44.9181247 L70.8197164,44.9181247 C70.1975137,45.8148066 69.2059106,46.5165846 67.5726672,46.5165846 C64.9866961,46.5165846 63.2951395,44.703705 63.2951395,41.1169491" id="Fill-23" fill="#FEFEFE" mask="url(#mask-2)"></path>
                        <path d="M75.8941865,40.0643384 L81.2022206,40.0643384 C81.1827548,38.2904621 80.4050225,37.0818663 78.6745907,37.0818663 C77.0413472,37.0818663 76.0691818,38.192996 75.8941865,40.0643384 M82.9909937,40.3957117 L82.9909937,41.4288629 L75.8553111,41.4288629 C75.9136241,43.7875355 77.0996884,45.054594 79.180111,45.054594 C80.1911799,45.054594 81.2216583,44.8596338 82.038266,44.5477763 L82.5243768,45.8343224 C81.4549668,46.302165 80.5217049,46.5165846 79.1023322,46.5165846 C76.127523,46.5165846 74.0859476,44.6647017 74.0859476,41.17544 C74.0859476,37.744641 75.9330899,35.6783665 78.6940283,35.6783665 C81.3577502,35.6783665 82.9909937,37.5497089 82.9909937,40.3957117" id="Fill-24" fill="#FEFEFE" mask="url(#mask-2)"></path>
                        <polygon id="Fill-25" fill="#FEFEFE" mask="url(#mask-2)" points="84.2740637 46.3216582 84.2740637 32.1695665 85.985086 31.50682 85.985086 46.3216582"></polygon>
                        <path d="M95.9396606,46.5165875 C94.384196,46.5165875 93.0037268,46.2826521 92.1287779,45.8538128 L92.6732018,44.4113097 C93.2759387,44.6842203 94.5397537,44.996106 96.0174675,44.996106 C98.0784525,44.996106 99.1478344,44.1383992 99.1478344,42.754387 C99.1478344,41.3898625 98.3895398,40.8050662 95.8813475,39.8888967 C93.5092471,39.0311899 92.3037733,37.9200601 92.3037733,35.7563197 C92.3037733,33.553604 94.1120121,32.208567 96.7368586,32.208567 C98.2534198,32.208567 99.5172347,32.5204527 100.567179,32.9882954 L100.003317,34.4892611 C99.0311801,34.0799094 97.9034571,33.7485361 96.6979552,33.7485361 C94.9674952,33.7485361 94.0731087,34.5672396 94.0731087,35.7758354 C94.0731087,37.1793351 94.850841,37.7446438 97.106259,38.5828348 C99.5561382,39.4990325 100.897732,40.415202 100.897732,42.5984301 C100.897732,45.0740844 98.9728109,46.5165875 95.9396606,46.5165875" id="Fill-26" fill="#FEFEFE" mask="url(#mask-2)"></path>
                        <path d="M109.899857,31.5847787 C109.413746,32.3060162 108.033305,33.8070101 107.119481,34.50876 L105.99173,34.50876 L105.99173,34.2748527 C106.555591,33.5535871 107.391665,32.2670692 107.838872,31.3898467 L109.899857,31.3898467 L109.899857,31.5847787 Z M104.494606,40.0643243 L109.80264,40.0643243 C109.783203,38.290448 109.005442,37.0818803 107.27501,37.0818803 C105.641767,37.0818803 104.669602,38.1929819 104.494606,40.0643243 Z M111.591413,40.3957257 L111.591413,41.4288489 L104.455731,41.4288489 C104.514072,43.7875214 105.70008,45.0546081 107.780531,45.0546081 C108.791572,45.0546081 109.822078,44.8596479 110.638714,44.5477622 L111.124768,45.8343083 C110.055387,46.3021509 109.122125,46.5165987 107.702752,46.5165987 C104.727943,46.5165987 102.686367,44.6647158 102.686367,41.1754259 C102.686367,37.7446269 104.53351,35.6783525 107.294448,35.6783525 C109.95817,35.6783525 111.591413,37.5496948 111.591413,40.3957257 Z" id="Fill-27" fill="#FEFEFE" mask="url(#mask-2)"></path>
                        <path d="M115.557652,40.7465866 L115.557652,41.077988 C115.557652,43.6510802 116.257605,45.0935551 118.532489,45.0935551 C120.418478,45.0935551 121.312893,43.3976573 121.312893,41.0584723 C121.312893,38.6803121 120.418478,37.1208555 118.493585,37.1208555 C116.374259,37.1208555 115.596555,38.3099356 115.557652,40.7465866 M123.082228,41.077988 C123.082228,44.6452282 121.371206,46.5165987 118.785235,46.5165987 C117.171457,46.5165987 116.160388,45.8148207 115.557652,44.9960891 L115.440997,44.9960891 C115.479873,45.4444441 115.557652,46.2242006 115.557652,46.7115027 L115.557652,51.0000084 L113.846657,51.0000084 L113.846657,35.8732845 L115.246564,35.8732845 L115.479873,37.2962718 L115.557652,37.2962718 C116.179826,36.3996181 117.113116,35.6783525 118.804701,35.6783525 C121.371206,35.6783525 123.082228,37.4717163 123.082228,41.077988" id="Fill-28" fill="#FEFEFE" mask="url(#mask-2)"></path>
                        <path d="M129.537078,44.8596394 L130.003723,46.0877228 C129.634322,46.3216582 128.895465,46.5165903 128.098267,46.5165903 C126.465052,46.5165903 125.045707,45.8148123 125.045707,43.2807234 L125.045707,34.1189155 L126.756702,33.4756284 L126.756702,35.8732761 L129.770414,35.8732761 L129.770414,37.1988255 L126.756702,37.1988255 L126.756702,43.24172 C126.756702,44.5087786 127.437217,45.1130624 128.389945,45.1130624 C128.778811,45.1130624 129.303769,44.9766212 129.537078,44.8596394" id="Fill-29" fill="#FEFEFE" mask="url(#mask-2)"></path>
                        <path d="M131.539508,46.3216582 L133.250502,46.3216582 L133.250502,35.8732761 L131.539508,35.8732761 L131.539508,46.3216582 Z M133.40606,33.0467609 C133.40606,33.7875141 132.939415,34.1384031 132.414429,34.1384031 C131.850595,34.1384031 131.403388,33.7875141 131.403388,33.0467609 C131.403388,32.2865483 131.850595,31.955175 132.414429,31.955175 C132.939415,31.955175 133.40606,32.2865483 133.40606,33.0467609 Z" id="Fill-30" fill="#FEFEFE" mask="url(#mask-2)"></path>
                        <path d="M151.118705,39.5185201 L151.118705,46.3216554 L149.427121,46.3216554 L149.427121,39.5964986 C149.427121,37.9590634 148.746633,37.1208442 147.307823,37.1208442 C145.285713,37.1208442 144.488543,38.32944 144.488543,40.5516714 L144.488543,46.3216554 L142.796958,46.3216554 L142.796958,39.5964986 C142.796958,37.9590634 142.116471,37.1208442 140.658223,37.1208442 C138.558334,37.1208442 137.877818,38.4658812 137.877818,40.9025322 L137.877818,46.3216554 L136.166796,46.3216554 L136.166796,35.8733014 L137.547293,35.8733014 L137.80004,37.2962887 L137.897284,37.2962887 C138.538868,36.2046747 139.724933,35.6783694 140.96931,35.6783694 C142.563678,35.6783694 143.65247,36.2436499 144.15799,37.4327581 L144.255206,37.4327581 C144.95516,36.2436499 146.238441,35.6783694 147.599472,35.6783694 C149.952107,35.6783694 151.118705,36.8284743 151.118705,39.5185201" id="Fill-31" fill="#FEFEFE" mask="url(#mask-2)"></path>
                        <path d="M157.593169,45.0935664 C159.693058,45.0935664 160.645757,43.5535973 160.645757,41.0779711 C160.645757,38.6023449 159.693058,37.1208668 157.573732,37.1208668 C155.454377,37.1208668 154.540553,38.6023449 154.540553,41.0779711 C154.540553,43.5535973 155.473843,45.0935664 157.593169,45.0935664 M157.554266,46.5165818 C154.793327,46.5165818 152.771218,44.5477734 152.771218,41.0779711 C152.771218,37.6276845 154.61836,35.6783637 157.612607,35.6783637 C160.431887,35.6783637 162.415093,37.6276845 162.415093,41.0779711 C162.415093,44.5477734 160.529103,46.5165818 157.554266,46.5165818" id="Fill-32" fill="#FEFEFE" mask="url(#mask-2)"></path>
                        <path d="M173.050183,33.904479 L170.775327,33.904479 L170.775327,44.8206755 L172.661317,44.8206755 C176.413886,44.8206755 178.299904,42.9493332 178.299904,39.2845988 C178.299904,35.5808892 176.394449,33.904479 173.050183,33.904479 M172.894653,46.3216695 L169.02543,46.3216695 L169.02543,32.4035132 L173.302957,32.4035132 C177.48324,32.4035132 180.14699,34.7621858 180.14699,39.2261361 C180.14699,43.9239936 177.463831,46.3216695 172.894653,46.3216695" id="Fill-33" fill="#FEFEFE" mask="url(#mask-2)"></path>
                        <path d="M182.207807,46.3216864 L183.918801,46.3216864 L183.918801,35.8733043 L182.207807,35.8733043 L182.207807,46.3216864 Z M185.80479,31.5847703 C185.318736,32.3060359 183.938238,33.8070017 183.024414,34.5087515 L181.896691,34.5087515 L181.896691,34.2748443 C182.460553,33.5535787 183.296598,32.2670607 183.743805,31.3898382 L185.80479,31.3898382 L185.80479,31.5847703 Z" id="Fill-34" fill="#FEFEFE" mask="url(#mask-2)"></path>
                        <path d="M190.89878,41.272906 C188.293371,41.3703721 187.457297,42.1111252 187.457297,43.4366465 C187.457297,44.606239 188.23503,45.1325725 189.362753,45.1325725 C191.11265,45.1325725 192.434806,44.1773997 192.434806,42.1501004 L192.434806,41.2144151 L190.89878,41.272906 Z M194.126363,39.2066316 L194.126363,46.3216526 L192.881986,46.3216526 L192.551461,44.8401744 L192.473682,44.8401744 C191.55983,45.9902793 190.723784,46.5165846 188.973887,46.5165846 C187.087897,46.5165846 185.687962,45.5419242 185.687962,43.4171589 C185.687962,41.3313969 187.28233,40.181292 190.684909,40.083826 L192.454244,40.0253351 L192.454244,39.4015637 C192.454244,37.6666625 191.657046,37.0818663 190.296043,37.0818663 C189.207195,37.0818663 188.21562,37.4717304 187.360109,37.8811103 L186.835123,36.5945361 C187.748947,36.1072059 189.032228,35.6978541 190.393259,35.6978541 C192.920861,35.6978541 194.126363,36.7699806 194.126363,39.2066316 Z" id="Fill-35" fill="#FEFEFE" mask="url(#mask-2)"></path>
                        <path d="M196.556465,32.9493061 C196.731432,32.9493061 196.848114,32.8518401 196.848114,32.6958832 C196.848114,32.5399544 196.750898,32.4619759 196.556465,32.4619759 L196.381497,32.4619759 L196.381497,32.9493061 L196.556465,32.9493061 Z M196.109257,32.2280687 L196.556465,32.2280687 C196.945331,32.2280687 197.120298,32.3839975 197.120298,32.6958832 C197.120298,32.910331 196.984234,33.0272846 196.848114,33.0857755 L197.256418,33.7680096 L196.945331,33.7680096 L196.595368,33.1637258 L196.381497,33.1637258 L196.381497,33.7680096 L196.109257,33.7680096 L196.109257,32.2280687 Z M197.68416,33.007797 C197.68416,32.4035132 197.23698,31.8966673 196.595368,31.8966673 C195.953728,31.8966673 195.50652,32.3645099 195.50652,33.007797 C195.50652,33.6120808 195.953728,34.099411 196.595368,34.099411 C197.198105,34.099411 197.68416,33.651056 197.68416,33.007797 Z M195.312087,33.007797 C195.312087,32.2475563 195.837073,31.7017352 196.595368,31.7017352 C197.314759,31.7017352 197.878593,32.2475563 197.878593,33.007797 C197.878593,33.748522 197.334169,34.2943431 196.595368,34.2943431 C195.837073,34.2943431 195.312087,33.748522 195.312087,33.007797 Z" id="Fill-36" fill="#FEFEFE" mask="url(#mask-2)"></path>
                        <path d="M26.7545415,43.3108812 C26.7545415,43.4994207 26.9700415,43.5000684 27.0088888,43.3108812 C27.2952014,41.9182236 27.7302742,40.9899166 28.4104529,40.0884754 L26.8809708,40.0894329 C26.8111973,40.0894329 26.7545415,40.1461496 26.7545415,40.2161584 L26.7545415,43.3108812 Z M37.986043,23.979572 C37.9232076,23.7760226 37.7474257,23.7625052 37.7491954,23.9758266 C37.7665264,25.9893832 37.1889011,27.7196096 33.5231551,31.3947355 L30.6237653,34.2992291 C29.3042496,35.6221314 28.1177921,36.8302203 27.4165465,38.0374643 L30.2799822,38.0374643 C30.3897546,37.9271286 30.5022236,37.814371 30.618625,37.6976708 L34.7783467,33.5231336 C38.2426374,30.0499519 38.7256865,26.3760369 37.986043,23.979572 Z M34.0986456,36.2607719 L30.6237653,39.747302 C28.5205062,41.8559591 26.7545415,43.6728376 26.7545415,45.6598382 L26.7565078,46.213122 C26.7565078,46.363334 26.9428793,46.3869895 27.0001811,46.2297371 C27.649546,44.4509889 29.819236,42.5521612 33.7989625,43.2251584 C33.7989625,43.2251584 51.1365389,46.2288078 51.2822373,46.2416493 C51.4514463,46.2566029 51.5352924,46.089466 51.4260818,45.9592484 C51.3604375,45.8810447 43.3567722,37.8572043 43.3567722,37.8572043 L34.0986456,36.2607719 Z M21.5557742,40.0884754 C21.4860007,40.0884754 21.4293449,40.0317868 21.4293449,39.9617216 L21.4293449,38.1631761 C21.4293449,38.0931391 21.4860007,38.0364224 21.5557742,38.0364224 L24.5903009,38.0371827 C24.6600743,38.0371827 24.7167301,37.980466 24.7167301,37.910429 C24.7087247,36.2948752 23.4940376,35.1972065 18.6271997,36.0464367 L8.11848812,37.8572043 C8.11848812,37.8572043 0.114738547,45.8810447 0.0491222999,45.9592484 C-0.0600602136,46.089466 0.023701622,46.2566029 0.192966821,46.2416493 C0.338693314,46.2288078 17.6762416,43.2251584 17.6762416,43.2251584 C21.6559681,42.5521612 23.8256581,44.4509889 24.4749668,46.2297371 C24.532381,46.3869895 24.7187244,46.363334 24.7187244,46.213122 C24.7187244,46.1046731 24.71923,40.2152291 24.71923,40.2152291 C24.71923,40.1451921 24.6626304,40.0884754 24.5927727,40.0884754 L21.5557742,40.0884754 Z M16.7118289,14.9505444 C13.2475382,18.4237261 12.7645173,22.097641 13.5041326,24.494106 C13.5669961,24.6976554 13.742778,24.7111728 13.7409803,24.4978514 C13.7236493,22.4842948 14.3013026,20.7540966 17.9670205,17.0789425 L25.8694525,9.15853832 C27.9727397,7.04985306 29.7387044,5.23300271 29.7387044,3.24600215 L29.7387044,0.146858034 C29.7387044,-0.0416532855 29.5232045,-0.0423291552 29.4843291,0.146858034 C28.9644832,2.67599056 27.9554087,3.67394031 25.8746209,5.76009658 L16.7118289,14.9505444 Z M29.7461761,8.68869625 L29.7461761,5.56854384 C29.7461761,5.38003252 29.5307043,5.37935665 29.4918289,5.56854384 C28.971983,8.09767637 27.9655208,9.11131193 25.884733,11.19744 L17.5850362,19.5114538 C13.5573334,23.5494654 12.8604136,27.4576537 14.9089832,29.9690165 C15.0455245,30.1364069 15.1924588,30.0362374 15.1033039,29.834096 C13.7490419,26.7619304 16.996709,23.5044919 18.5430727,21.9541877 L25.8769523,14.6012324 C27.9802395,12.4925753 29.7461761,10.6756968 29.7461761,8.68869625 Z M17.812783,24.7308012 C13.7847151,28.7692915 15.6369134,32.669482 17.986402,33.743101 C18.1925483,33.8373003 18.2743719,33.6696002 18.1167637,33.5327084 C16.2327404,31.8963997 16.804832,29.1439204 19.1740673,26.7685764 L25.8685256,20.0567962 C27.9718128,17.9481391 29.7377494,16.1312606 29.7377494,14.1442882 L29.7377494,11.0451441 C29.7377494,10.8566327 29.5222775,10.8559569 29.4834021,11.0451441 C28.9635563,13.5742766 27.9567289,14.5680022 25.875913,16.6541303 L17.812783,24.7308012 Z M26.7470417,34.769043 L26.7470417,37.8891954 C26.7470417,38.0777349 26.9625417,38.0784108 27.001417,37.8891954 C27.5212629,35.3600911 28.527697,34.3464555 30.6085129,32.2602992 L33.9051675,28.9622241 C37.9328422,24.9242125 38.6297901,21.0160524 36.5811925,18.5046615 C36.4446792,18.3372711 36.2977168,18.4374406 36.3868717,18.6395819 C37.7411619,21.7117194 34.4934666,24.969186 32.947131,26.5194903 L30.6162936,28.8565068 C28.5130064,30.9651921 26.7470417,32.7820706 26.7470417,34.769043 Z M30.6173329,26.803609 C28.536517,28.8897371 27.5296896,29.8834908 27.0098438,32.4125952 C26.9709684,32.6017824 26.7554966,32.6011347 26.7554966,32.4125952 L26.7554966,29.3134792 C26.7554966,27.3264787 28.5214331,25.5096283 30.6247203,23.4009431 L32.3161083,21.7051015 C34.6853717,19.3297857 35.2574633,16.5773346 33.3734119,14.9409696 C33.2158037,14.8040778 33.2976555,14.6363495 33.5037736,14.730577 C35.8532622,15.8041396 37.7054606,19.7043865 33.6774207,23.742905 L30.6173329,26.803609 Z" id="Fill-37" fill="#FEFEFE" mask="url(#mask-2)"></path>
                        <path d="M50.1482756,40.3196031 C50.3308551,40.3196031 50.4397848,40.2175186 50.4397848,40.0695313 C50.4397848,39.9041685 50.3484951,39.8337373 50.1448768,39.8337373 L49.9728027,39.8337373 L49.9728027,40.3196031 L50.1482756,40.3196031 Z M49.7060682,39.6085037 L50.1553822,39.6085037 C50.5378721,39.6085037 50.7099181,39.7598985 50.7099181,40.0627163 C50.7099181,40.2842326 50.5765509,40.4073817 50.4360489,40.4638731 L50.8432854,41.1467268 L50.541608,41.1467268 L50.1903532,40.5377119 L49.9728027,40.5377119 L49.9728027,41.1467268 L49.7060682,41.1467268 L49.7060682,39.6085037 Z M51.2753246,40.3757566 C51.2753246,39.7670515 50.8222466,39.2706533 50.1869544,39.2706533 C49.5516622,39.2706533 49.0952135,39.7316809 49.0952135,40.3757566 C49.0952135,40.9847715 49.5516622,41.4808317 50.1869544,41.4808317 C50.7873037,41.4808317 51.2753246,41.0198041 51.2753246,40.3757566 Z M48.8987299,40.3757566 C48.8987299,39.626189 49.4393337,39.0841978 50.1869544,39.0841978 C50.8996322,39.0841978 51.4752069,39.626189 51.4752069,40.3757566 C51.4752069,41.125634 50.9345751,41.6672872 50.1869544,41.6672872 C49.4393337,41.6672872 48.8987299,41.125634 48.8987299,40.3757566 Z" id="Fill-38" fill="#FEFEFE" mask="url(#mask-2)"></path>
                    </g>
                </g>
            </g>
        </g>
    </g>
</svg>