<?xml version="1.0" encoding="UTF-8" standalone="no"?>
<svg width="332px" height="64px" viewBox="0 0 332 64" version="1.1" xmlns="http://www.w3.org/2000/svg" xmlns:xlink="http://www.w3.org/1999/xlink">
    <!-- Generator: Sketch 49.1 (51147) - http://www.bohemiancoding.com/sketch -->
    <title>Infortec</title>
    <desc>Created with Sketch.</desc>
    <defs>
        <polygon id="path-1" points="0.118313988 0.686233333 42.2023244 0.686233333 42.2023244 50.4792333 0.118313988 50.4792333"></polygon>
        <polygon id="path-3" points="0 64 331 64 331 0 0 0"></polygon>
    </defs>
    <g id="Landing" stroke="none" stroke-width="1" fill="none" fill-rule="evenodd">
        <g id="Tablet" transform="translate(-395.000000, -3515.000000)">
            <g id="Infortec" transform="translate(395.000000, 3515.000000)">
                <path d="M76,10.2294391 L63.3882222,10.2294391 L63.3882222,6.32154247 C63.3882222,4.58948477 63.9886966,3.09897891 65.1914597,1.86313233 C66.3924086,0.623540771 67.8346358,0 69.5126989,0 L76,0 L76,10.2294391 Z M75.6117778,64 L63,64 L63,20.8595921 C63,19.125662 63.607731,17.6351561 64.8032375,16.397437 C66.0096288,15.1578455 67.4464136,14.5380497 69.1353614,14.5380497 L75.6117778,14.5380497 L75.6117778,64 Z" id="Fill-1" fill="#FEFEFE"></path>
                <path d="M105.778159,24.7254747 C104.830201,24.4084098 103.043665,24.4933379 101.995443,24.4933379 L93.6734667,24.4725777 L93.6734667,32.1368663 L93.6734667,64 L81,64 L81,34.7583135 L81,14.0754916 L101.636312,14 C106.948522,14 111.835974,14.4586117 116.302313,17.3291813 C120.768653,20.2035255 123,26.018269 123,34.7583135 L123,64 L116.663267,64 C114.853032,64 113.374582,63.4055033 112.226095,62.2183973 C111.077608,61.0312913 110.510656,59.5025856 110.510656,57.6303929 L110.510656,32.1368663 C110.510656,30.8988035 110.403099,29.7890764 110.060376,28.8435436 C108.806155,25.3445061 105.778159,24.7254747 105.778159,24.7254747" id="Fill-3" fill="#FEFEFE"></path>
                <path d="M163.705176,32.9249007 L163.705176,41.6448664 L163.705176,42.4700582 L163.705176,45.0997698 C163.705176,45.0997698 163.965591,53.6016893 172.386295,53.6016893 C172.386295,53.6016893 180.501942,53.8103369 180.501942,45.5321026 L180.533563,42.6279537 L180.485201,32.9643746 C180.485201,31.7425643 180.386615,30.6767699 180.386615,30.6767699 C180.139221,29.4512002 179.216608,27.9850279 179.216608,27.9850279 C176.508292,23.9417759 171.94545,24.1391453 171.94545,24.1391453 C163.820503,24.2237321 163.705176,32.9249007 163.705176,32.9249007 M180.284309,63.0810571 C176.82451,64.3291832 172.890384,63.9438431 172.890384,63.9438431 C151.030408,63.9438431 151.060169,42.7012623 151.060169,42.7012623 L151.060169,34.2331775 C151.060169,34.2331775 148.820601,14 171.668294,14 C176.971459,14 181.854239,14.4473705 186.316636,17.2462558 C190.775312,20.0489005 193,25.7105812 193,34.2331775 L193,42.6279537 C193,55.9362867 185.818127,61.0866868 180.284309,63.0810571" id="Fill-5" fill="#FEFEFE"></path>
                <path d="M151,0 L150.969282,11.4452147 L142.91919,11.4452147 C142.281787,11.9410497 141.965006,12.9271276 141.965006,14.4109046 L141.965006,17.7363546 L150.170608,17.7363546 L150.170608,20.5156405 L150.164849,26.7788198 L143.871455,26.8049164 L141.965006,26.8049164 L141.965006,64 L129,64 L129,13.2551989 C129,8.81132405 130.20761,5.47841789 132.624749,3.25275237 C134.911336,1.15756976 137.93324,0.00186404147 143.871455,0.109978447 L151,0 Z" id="Fill-7" fill="#FEFEFE"></path>
                <path d="M224,27.3026829 L223.588916,27.344307 L219.359566,27.344307 C215.802394,27.344307 213.167383,28.224089 211.458237,29.9760851 C209.732425,31.7337571 208.873223,34.4904075 208.873223,38.2498203 L208.873223,64 L196,64 L196,39.7539637 C196,34.8650244 196.711064,30.7612669 198.122082,27.4370152 C199.5331,24.1165475 201.462602,21.4563893 203.914291,19.4451886 C206.240063,17.5721043 208.967661,16.1890491 212.100787,15.3149431 C215.224654,14.438945 218.439257,14 221.752001,14 L222.664903,14 L223.588916,14 L224,14.1343323" id="Fill-9" fill="#FEFEFE"></path>
                <path d="M0.000150836288,19.8201708 C-0.010344198,18.2194504 0.526651724,16.880603 1.66886129,15.7342583 C2.82156589,14.5896478 4.19991373,14.0086713 5.81265067,14.0017343 L13,14 L13,27 L0.000150836288,27 L0.000150836288,19.9276948 L0.000150836288,19.8201708 Z" id="Fill-11" fill="#FEFEFE"></path>
                <path d="M224,16.7659971 L224,4 L230.548301,4 C232.12142,4 233.507446,4.5969778 234.729286,5.77787451 C235.937763,6.95877122 236.539137,8.38032461 236.539137,10.0406691 L236.539137,18.0289783 L244,18.0289783 L244,21.4448106 C244,29.3696909 237.814433,28.6066787 237.814433,28.6066787 L236.539137,28.6066787 L236.539137,48.2043405 L236.539137,63.9738822 L233.558992,64 L224,63.9888067 L224,48.2043405 L224,29.2129843" id="Fill-13" fill="#FEFEFE"></path>
                <path d="M274.524112,47.6091889 L283.292211,47.6091889 C282.007501,52.5653312 279.548673,56.340997 275.92863,58.9343273 C272.290154,61.6503528 267.733765,63 262.237344,63 C255.566805,63 250.363453,60.8175127 246.618072,56.4543971 C242.880063,52.2102587 241,46.1349875 241,38.2341604 C241,30.6884058 242.815551,24.7878822 246.444811,20.5418848 C250.18282,16.1806283 255.391701,14 262.056711,14 C269.0793,14 274.524112,16.1211397 278.381928,20.3689961 C282.118093,24.7321117 284,30.807383 284,38.5892329 L284,39.831057 L284,40.5319068 C284,41.1249336 283.933645,41.5339176 283.824896,41.7700129 L253.465558,41.7700129 C253.581679,45.4341376 254.453513,48.1427271 256.090274,49.9143713 C257.612757,51.8031338 259.892794,52.7437969 262.943289,52.7437969 C264.922886,52.7437969 266.627845,52.3292359 268.034206,51.5019728 C268.371512,51.3922908 268.695915,51.1785037 268.990827,50.8847788 C269.287582,50.5910539 269.606455,50.2638668 269.958507,49.9143713 C270.076471,49.5592989 270.50778,49.0871083 271.269021,48.4996585 C272.02842,47.9103498 273.11775,47.6091889 274.524112,47.6091889 M253.465558,33.8208514 L271.364868,33.8208514 C271.125252,30.6363533 270.312401,28.2754003 268.90604,26.7417103 C267.387243,25.0871842 265.219641,24.2636391 262.417978,24.2636391 C259.837498,24.2636391 257.732565,25.0871842 256.090274,26.7417103 C254.453513,28.3906594 253.581679,30.7516124 253.465558,33.8208514" id="Fill-15" fill="#FEFEFE"></path>
                <g id="Group-19" transform="translate(289.000000, 13.000000)">
                    <mask id="mask-2" fill="white">
                        <use xlink:href="#path-1"></use>
                    </mask>
                    <g id="Clip-18"></g>
                    <path d="M33.4755213,34.8449 L42.2032416,34.8449 C40.9210481,39.8731222 38.474058,43.7056778 34.8751116,46.3406778 C31.2596563,49.1003444 26.7178666,50.4792333 21.2460739,50.4792333 C14.6113189,50.4792333 9.43118403,48.2635667 5.7093378,43.8284556 C1.98382292,39.5161222 0.118313988,33.3394556 0.118313988,25.3116778 C0.118313988,17.6446778 1.9251245,11.6512333 5.53691121,7.33701111 C9.26426042,2.90378889 14.442561,0.686233333 21.0754816,0.686233333 C28.0569241,0.686233333 33.4755213,2.84145556 37.3202674,7.15756667 C39.409564,9.79067778 40.9210481,12.8506778 41.8565541,16.3224556 L29.628941,16.3224556 C29.0511285,15.1286778 28.4696473,14.2276778 27.8900005,13.6289 C26.3730134,11.9477889 24.223184,11.1129 21.4258378,11.1129 C18.8651195,11.1129 16.7666513,11.9477889 15.1377703,13.6289 C13.0429707,16.0296778 11.990068,19.9812333 11.990068,25.4967889 C11.990068,31.0085667 13.0429707,34.8996778 15.1377703,37.1757889 C16.6510888,39.0986778 18.918315,40.0544556 21.9504549,40.0544556 C23.9278576,40.0544556 25.6172713,39.6370111 27.0168616,38.7964556 C27.3617148,38.6736778 27.6827217,38.4640111 27.9743795,38.1655667 C28.2642029,37.8671222 28.5815412,37.5422333 28.9374003,37.1757889 C29.1703596,36.8187889 29.628941,36.3390111 30.3314876,35.7383444 C31.0285313,35.1395667 32.081434,34.8449 33.4755213,34.8449" id="Fill-17" fill="#FEFEFE" mask="url(#mask-2)"></path>
                </g>
                <mask id="mask-4" fill="white">
                    <use xlink:href="#path-3"></use>
                </mask>
                <g id="Clip-21"></g>
                <polygon id="Fill-20" fill="#FEFEFE" mask="url(#mask-4)" points="18 28 32 28 32 14 18 14"></polygon>
                <polygon id="Fill-22" fill="#FEFEFE" mask="url(#mask-4)" points="18 46 32 46 32 32 18 32"></polygon>
                <polygon id="Fill-23" fill="#FEFEFE" mask="url(#mask-4)" points="0 64 14 64 14 50 0 50"></polygon>
                <polygon id="Fill-24" fill="#FEFEFE" mask="url(#mask-4)" points="35 46 49 46 49 32 35 32"></polygon>
                <polygon id="Fill-25" fill="#FEFEFE" mask="url(#mask-4)" points="35 64 49 64 49 50 35 50"></polygon>
            </g>
        </g>
    </g>
</svg>