<?xml version="1.0" encoding="UTF-8" standalone="no"?>
<svg width="64px" height="64px" viewBox="0 0 64 64" version="1.1" xmlns="http://www.w3.org/2000/svg" xmlns:xlink="http://www.w3.org/1999/xlink">
    <!-- Generator: Sketch 49.1 (51147) - http://www.bohemiancoding.com/sketch -->
    <title>Instagram</title>
    <desc>Created with Sketch.</desc>
    <defs></defs>
    <g id="Landing" stroke="none" stroke-width="1" fill="none" fill-rule="evenodd">
        <g id="Tablet" transform="translate(-294.000000, -3352.000000)" fill="#FFFFFF" fill-rule="nonzero">
            <g id="Instagram" transform="translate(294.000000, 3352.000000)">
                <g id="Shape">
                    <path d="M63.808,18.8088889 C63.7553291,16.1538631 63.2527976,13.5269938 62.3217778,11.04 C61.5172418,8.90461136 60.2565208,6.97045417 58.6275556,5.37244444 C57.0295458,3.74347923 55.0953886,2.4827582 52.96,1.67822222 C50.4741286,0.747596855 47.8484948,0.245071707 45.1946667,0.192 C41.7777778,0.0355555556 40.6897778,0 32,0 C23.3102222,0 22.2222222,0.0355555556 18.8088889,0.192 C16.1538631,0.244670907 13.5269938,0.747202436 11.04,1.67822222 C8.90333942,2.48230037 6.96792823,3.74304784 5.36888889,5.37244444 C3.73992367,6.97045417 2.47920264,8.90461136 1.67466667,11.04 C0.744041299,13.5258714 0.241516151,16.1515052 0.188444444,18.8053333 C0.0355555556,22.2222222 0,23.3102222 0,32 C0,40.6897778 0.0355555556,41.7777778 0.192,45.1911111 C0.244670907,47.8461369 0.747202436,50.4730062 1.67822222,52.96 C2.4827582,55.0953886 3.74347923,57.0295458 5.37244444,58.6275556 C6.97038135,60.2566097 8.90455942,61.5173443 11.04,62.3217778 C13.5258714,63.2524031 16.1515052,63.7549283 18.8053333,63.808 C22.2222222,63.9644444 23.3102222,64 32,64 C40.6897778,64 41.7777778,63.9644444 45.1911111,63.808 C47.8461369,63.7553291 50.4730062,63.2527976 52.96,62.3217778 C57.2601053,60.6593939 60.6593939,57.2601053 62.3217778,52.96 C63.2524031,50.4741286 63.7549283,47.8484948 63.808,45.1946667 C63.9644444,41.7777778 64,40.6897778 64,32 C64,23.3102222 63.9644444,22.2222222 63.808,18.8088889 Z M58.048,44.9315556 C58.0234677,46.9593433 57.6506342,48.9678333 56.9457778,50.8693333 C55.8702461,53.6614206 53.6643462,55.868612 50.8728889,56.9457778 C48.9702478,57.6509664 46.9605328,58.023804 44.9315556,58.048 C41.5537778,58.2008889 40.544,58.2328889 32,58.2328889 C23.456,58.2328889 22.4426667,58.2008889 19.0684444,58.048 C17.0406636,58.0233972 15.0321856,57.650566 13.1306667,56.9457778 C11.73932,56.4336473 10.4805688,55.615945 9.44711111,54.5528889 C8.38449846,53.5204555 7.56682408,52.2629622 7.05422222,50.8728889 C6.34896533,48.9702667 5.97612549,46.9605397 5.952,44.9315556 C5.79911111,41.5537778 5.76711111,40.544 5.76711111,32 C5.76711111,23.456 5.79911111,22.4426667 5.952,19.0684444 C5.97660277,17.0406636 6.34943402,15.0321856 7.05422222,13.1306667 C7.56635269,11.73932 8.384055,10.4805688 9.44711111,9.44711111 C10.4795445,8.38449846 11.7370378,7.56682408 13.1271111,7.05422222 C15.0297522,6.34903364 17.0394672,5.97619602 19.0684444,5.952 C22.4462222,5.79911111 23.456,5.76711111 32,5.76711111 C40.544,5.76711111 41.5573333,5.79911111 44.9315556,5.952 C46.9593364,5.97660277 48.9678144,6.34943402 50.8693333,7.05422222 C52.26068,7.56635269 53.5194312,8.384055 54.5528889,9.44711111 C55.6155015,10.4795445 56.4331759,11.7370378 56.9457778,13.1271111 C57.6509664,15.0297522 58.023804,17.0394672 58.048,19.0684444 C58.2008889,22.4462222 58.2328889,23.456 58.2328889,32 C58.2328889,40.544 58.2008889,41.5573333 58.048,44.9315556 Z M32,15.5662222 C22.9238752,15.5662222 15.5662222,22.9238752 15.5662222,32 C15.5662222,41.0761248 22.9238752,48.4337778 32,48.4337778 C41.0761248,48.4337778 48.4337778,41.0761248 48.4337778,32 C48.4337778,27.6414911 46.7023669,23.4614955 43.6204357,20.3795643 C40.5385045,17.2976331 36.3585089,15.5662222 32,15.5662222 Z M32,42.6666667 C26.1089627,42.6666667 21.3333333,37.8910373 21.3333333,32 C21.3333333,26.1089627 26.1089627,21.3333333 32,21.3333333 C37.8910373,21.3333333 42.6666667,26.1089627 42.6666667,32 C42.6666667,37.8910373 37.8910373,42.6666667 32,42.6666667 Z M52.9208889,14.9191111 C52.9208889,17.0398846 51.2016623,18.7591111 49.0808889,18.7591111 C46.9601154,18.7591111 45.2408889,17.0398846 45.2408889,14.9191111 C45.2408889,12.7983377 46.9601154,11.0791111 49.0808889,11.0791111 C51.2016623,11.0791111 52.9208889,12.7983377 52.9208889,14.9191111 Z"></path>
                </g>
            </g>
        </g>
    </g>
</svg>