<?xml version="1.0" encoding="UTF-8" standalone="no"?>
<svg width="334px" height="60px" viewBox="0 0 334 60" version="1.1" xmlns="http://www.w3.org/2000/svg" xmlns:xlink="http://www.w3.org/1999/xlink">
    <!-- Generator: Sketch 49.1 (51147) - http://www.bohemiancoding.com/sketch -->
    <title>Pigmentum</title>
    <desc>Created with Sketch.</desc>
    <defs>
        <polygon id="path-1" points="0 0.505462687 30.2309085 0.505462687 30.2309085 37.5266418 0 37.5266418"></polygon>
        <polygon id="path-3" points="0 59 333.499 59 333.499 0.505462687 0 0.505462687"></polygon>
    </defs>
    <g id="Landing" stroke="none" stroke-width="1" fill="none" fill-rule="evenodd">
        <g id="Tablet" transform="translate(-41.000000, -3527.000000)">
            <g id="Pigmentum" transform="translate(41.000000, 3527.000000)">
                <polygon id="Fill-1" fill="#FEFEFE" points="75 60 91 60 91 47 75 47"></polygon>
                <polygon id="Fill-2" fill="#FEFEFE" points="50 60 66 60 66 47 50 47"></polygon>
                <polygon id="Fill-3" fill="#FEFEFE" points="24 60 40 60 40 47 24 47"></polygon>
                <polygon id="Fill-4" fill="#FEFEFE" points="0 60 16 60 16 47 0 47"></polygon>
                <g id="Group-35">
                    <g id="Group-7">
                        <mask id="mask-2" fill="white">
                            <use xlink:href="#path-1"></use>
                        </mask>
                        <g id="Clip-6"></g>
                        <path d="M21.9244351,17.4296567 C21.5344723,18.335791 21.0769989,19.0341045 20.5520149,19.520194 C20.0261426,20.0080448 19.4762862,20.3180149 18.9015574,20.4518657 C18.3241638,20.586597 17.8507011,20.6535224 17.4785043,20.6535224 L7.67169574,20.6535224 L7.67169574,8.16313433 L18.0372436,8.16313433 C18.4431957,8.16313433 18.9086638,8.23798507 19.4345362,8.38856716 C19.9595202,8.53914925 20.4498606,8.80949254 20.907334,9.19431343 C21.3656957,9.58177612 21.7467755,10.1356716 22.0514617,10.8568806 C22.3552596,11.5789701 22.5089351,12.5282537 22.5089351,13.7029701 C22.5089351,15.2818806 22.3126213,16.5235224 21.9244351,17.4296567 M30.2309085,13.7029701 C30.2309085,11.2848507 29.8249564,9.23746269 29.0121638,7.55728358 C28.198483,5.87886567 27.1911532,4.51922388 25.9892862,3.47747761 C24.7865309,2.43749254 23.4736266,1.6819403 22.0514617,1.2108209 C20.6284085,0.741462687 19.3075096,0.505462687 18.0878766,0.505462687 L-0.000532978723,0.505462687 L-0.000532978723,37.5266418 L7.67169574,37.5266418 L7.67169574,28.2601194 L17.37635,28.2601194 C17.5797702,28.2601194 17.9777277,28.2425075 18.5711106,28.2081642 C19.1636053,28.1755821 19.8742436,28.0417313 20.7039138,27.8057313 C21.5344723,27.5723731 22.4236585,27.2192537 23.3723606,26.7481343 C24.3201745,26.2787761 25.234233,25.606 26.1154245,24.7333284 C28.8593766,22.1144328 30.2309085,18.4379403 30.2309085,13.7029701" id="Fill-5" fill="#FEFEFE" mask="url(#mask-2)"></path>
                    </g>
                    <mask id="mask-4" fill="white">
                        <use xlink:href="#path-3"></use>
                    </mask>
                    <g id="Clip-9"></g>
                    <polygon id="Fill-8" fill="#FEFEFE" mask="url(#mask-4)" points="39.680266 37.5266418 47.4022394 37.5266418 47.4022394 0.606731343 39.680266 0.606731343"></polygon>
                    <path d="M75.395792,24.7332403 L84.6429729,24.7332403 C84.1348665,25.5389866 83.5254941,26.2610761 82.8148559,26.899509 C82.1033293,27.5379418 81.3234037,28.0830313 80.4768559,28.5365388 C79.6311963,28.9891657 78.7757654,29.3352403 77.9114516,29.5685985 C77.0471378,29.8045985 76.2094729,29.9217179 75.395792,29.9217179 C73.9052282,29.9217179 72.499941,29.6355239 71.179042,29.064897 C69.8572548,28.4942701 68.7051324,27.7131806 67.7235633,26.722509 C66.7411059,25.7335985 65.9629569,24.5826582 65.3864516,23.2723299 C64.8108346,21.9628821 64.5230261,20.5530463 64.5230261,19.0410612 C64.5230261,17.5308373 64.8108346,16.1210015 65.3864516,14.8097925 C65.9629569,13.5012254 66.7411059,12.3599716 67.7235633,11.3860313 C68.7051324,10.412091 69.8572548,9.63980746 71.179042,9.0691806 C72.499941,8.49767313 73.9052282,8.2123597 75.395792,8.2123597 C77.6325261,8.2123597 79.6311963,8.80059851 81.3918027,9.97531493 C83.152409,11.1509119 84.4724197,12.6954791 85.3536112,14.6090164 L90.9436697,8.96791194 C89.2487973,6.44940448 87.0555899,4.42667313 84.363159,2.89883731 C81.6707282,1.37100149 78.6816059,0.607523881 75.395792,0.607523881 C72.8552601,0.607523881 70.4595207,1.09361343 68.205909,2.06755373 C65.9540739,3.04237463 63.9900473,4.35974776 62.3120527,6.02143433 C60.6367229,7.68400149 59.306941,9.63188209 58.3244835,11.8641955 C57.3420261,14.0982701 56.8507973,16.4908522 56.8507973,19.0410612 C56.8507973,21.5939119 57.3420261,23.9856134 58.3244835,26.2188075 C59.306941,28.4528821 60.6367229,30.3998821 62.3120527,32.0624493 C63.9900473,33.7241358 65.9540739,35.041509 68.205909,36.0154493 C70.4595207,36.9902701 72.8552601,37.4772403 75.395792,37.4772403 C77.1235314,37.4772403 78.7908665,37.2500463 80.4013505,36.7956582 C82.0091697,36.3439119 83.5077282,35.6966731 84.8979144,34.8574642 C86.2863239,34.0182552 87.5477069,33.0187776 88.6820633,31.8599119 C89.8164197,30.7019269 90.7917707,29.4171358 91.603675,28.0073 L91.603675,17.1785985 L75.395792,17.1785985 L75.395792,24.7332403 Z" id="Fill-10" fill="#FEFEFE" mask="url(#mask-4)"></path>
                    <polygon id="Fill-11" fill="#FEFEFE" mask="url(#mask-4)" points="108.978515 22.265191 115.431111 37.5268179 123.255238 37.5268179 129.505302 22.5170418 129.505302 37.5268179 137.431584 37.5268179 137.431584 0.505638806 129.251249 0.505638806 119.342286 25.7919821 109.283201 0.505638806 101.052233 0.505638806 101.052233 37.5268179 108.978515 37.5268179"></polygon>
                    <polygon id="Fill-12" fill="#FEFEFE" mask="url(#mask-4)" points="146.879964 37.4769761 172.029454 37.4769761 172.029454 29.769991 154.603714 29.769991 154.603714 23.4235284 171.370337 23.4235284 171.370337 15.7174239 154.603714 15.7174239 154.603714 8.21297612 172.029454 8.21297612 172.029454 0.556185075 146.879964 0.556185075"></polygon>
                    <polygon id="Fill-13" fill="#FEFEFE" mask="url(#mask-4)" points="188.745798 13.5512433 204.800894 37.5272582 213.539969 37.5272582 213.539969 0.556273134 205.614575 0.556273134 205.614575 24.4812134 189.559479 0.506079104 180.819516 0.506079104 180.819516 37.5272582 188.745798 37.5272582"></polygon>
                    <polygon id="Fill-14" fill="#FEFEFE" mask="url(#mask-4)" points="222.988615 8.21262388 231.627312 8.21262388 231.627312 37.5268179 239.401695 37.5268179 239.401695 8.21262388 248.037727 8.21262388 248.037727 0.556713433 222.988615 0.556713433"></polygon>
                    <path d="M279.943788,20.6536104 C279.943788,21.0234612 279.88516,21.7112075 279.767016,22.7186104 C279.647096,23.7260134 279.34241,24.7510284 278.85207,25.791894 C278.359953,26.8327597 277.632437,27.7556254 276.666857,28.560491 C275.702165,29.3679985 274.355506,29.7704313 272.627766,29.7704313 C271.475644,29.7704313 270.493187,29.5863866 269.682171,29.2165358 C268.86849,28.8466851 268.182724,28.3597149 267.623985,27.7556254 C267.063469,27.1506552 266.633532,26.4972522 266.327958,25.791894 C266.022384,25.0865358 265.785208,24.3987896 265.616431,23.7260134 C265.446766,23.0549985 265.344612,22.4500284 265.311745,21.9128642 C265.277102,21.3757 265.261112,20.9723866 265.261112,20.7046851 L265.261112,0.556625373 L257.486729,0.556625373 L257.486729,20.6536104 C257.486729,20.8552672 257.519596,21.4179687 257.588884,22.3408343 C257.657282,23.2654612 257.842937,24.3556403 258.147623,25.614894 C258.453197,26.8732672 258.935543,28.2012075 259.596437,29.5943119 C260.255554,30.9874164 261.196261,32.2880582 262.415894,33.4971179 C263.703038,34.8074463 265.211368,35.7981179 266.936442,36.4691328 C268.66507,37.141909 270.545596,37.4765358 272.577134,37.4765358 L272.627766,37.4765358 C274.591793,37.4765358 276.328415,37.2000284 277.835857,36.6461328 C279.34241,36.0904761 280.655314,35.3525358 281.77457,34.4296701 C282.892048,33.5059239 283.831868,32.4483269 284.594027,31.2559985 C285.355298,30.0645507 285.965559,28.8466851 286.422144,27.6050433 C286.880506,26.3625209 287.210064,25.1455358 287.412596,23.9532075 C287.616016,22.7617597 287.718171,21.6777448 287.718171,20.7046851 L287.718171,0.556625373 L279.943788,0.556625373 L279.943788,20.6536104 Z" id="Fill-15" fill="#FEFEFE" mask="url(#mask-4)"></path>
                    <polygon id="Fill-16" fill="#FEFEFE" mask="url(#mask-4)" points="325.318043 0.505638806 315.409969 25.7919821 305.350884 0.505638806 297.119915 0.505638806 297.119915 37.5268179 305.045309 37.5268179 305.045309 22.265191 311.498793 37.5268179 319.322032 37.5268179 325.572985 22.5170418 325.572985 37.5268179 333.498378 37.5268179 333.498378 0.505638806"></polygon>
                    <polygon id="Fill-17" fill="#FEFEFE" mask="url(#mask-4)" points="101.214436 56.635597 102.871112 56.635597 102.871112 49.1672537 101.214436 49.1672537"></polygon>
                    <polygon id="Fill-18" fill="#FEFEFE" mask="url(#mask-4)" points="108.442871 54.3028955 108.42244 54.3028955 106.659169 49.1672537 104.327387 49.1672537 104.327387 56.635597 105.878355 56.635597 105.878355 51.3951642 105.899674 51.3951642 107.746446 56.635597 109.02293 56.635597 110.869701 51.343209 110.89102 51.343209 110.89102 56.635597 112.441988 56.635597 112.441988 49.1672537 110.110206 49.1672537"></polygon>
                    <path d="M118.177284,52.1375955 C118.096448,52.2846552 117.988964,52.3982522 117.85572,52.4783866 C117.721587,52.5585209 117.567023,52.6122373 117.39114,52.6395358 C117.215257,52.6685955 117.032268,52.6818045 116.84306,52.6818045 L115.555028,52.6818045 L115.555028,50.4433269 L116.84306,50.4433269 C117.032268,50.4433269 117.215257,50.4574164 117.39114,50.4847149 C117.567023,50.512894 117.721587,50.567491 117.85572,50.6476254 C117.988964,50.7268791 118.096448,50.8404761 118.177284,50.9866552 C118.258119,51.1337149 118.29898,51.3256851 118.29898,51.5625657 C118.29898,51.7994463 118.258119,51.9914164 118.177284,52.1375955 M119.30631,49.9096851 C119.098448,49.686894 118.830182,49.5072522 118.498847,49.3707597 C118.168401,49.2351478 117.767778,49.1673418 117.296092,49.1673418 L113.898353,49.1673418 L113.898353,56.6356851 L115.555028,56.6356851 L115.555028,53.9577896 L117.296092,53.9577896 C117.767778,53.9577896 118.168401,53.8899836 118.498847,53.7543716 C118.830182,53.6187597 119.098448,53.4391179 119.30631,53.2154463 C119.513284,52.9926552 119.665182,52.7364015 119.76023,52.4466851 C119.855278,52.1569687 119.902358,51.8628493 119.902358,51.5625657 C119.902358,51.2561179 119.855278,50.9593567 119.76023,50.6731627 C119.665182,50.3878493 119.513284,50.1333567 119.30631,49.9096851" id="Fill-19" fill="#FEFEFE" mask="url(#mask-4)"></path>
                    <path d="M125.263236,52.2949582 C125.07314,52.461391 124.787996,52.5459284 124.408693,52.5459284 L122.593012,52.5459284 L122.593012,50.4430627 L124.408693,50.4430627 C124.787996,50.4430627 125.07314,50.5249582 125.263236,50.6896299 C125.452443,50.8525403 125.548379,51.1167194 125.548379,51.4786448 C125.548379,51.8555403 125.452443,52.1276448 125.263236,52.2949582 M127.167746,55.7786 C127.150869,55.6112866 127.137544,55.4466149 127.130438,55.2863463 C127.123331,55.1260776 127.117113,54.9869433 127.110007,54.8680627 C127.095794,54.6796149 127.069145,54.4911672 127.03006,54.3027194 C126.991863,54.1142716 126.929682,53.9425552 126.846182,53.7849284 C126.761794,53.6290627 126.651645,53.4925701 126.518401,53.3772119 C126.385156,53.2627343 126.216379,53.1773164 126.012071,53.1209582 L126.012071,53.1007045 C126.434012,52.933391 126.738698,52.6885851 126.925241,52.3680478 C127.111784,52.0475104 127.205055,51.6670925 127.205055,51.2276746 C127.205055,50.9423612 127.153534,50.6755403 127.051379,50.4280925 C126.949225,50.1806448 126.801768,49.9622567 126.608119,49.773809 C126.415358,49.5853612 126.182624,49.4374209 125.911693,49.3291075 C125.641651,49.2216746 125.336964,49.1670776 124.999411,49.1670776 L120.937225,49.1670776 L120.937225,56.6363015 L122.593012,56.6363015 L122.593012,53.7171224 L124.249688,53.7171224 C124.665411,53.7171224 124.963879,53.8087045 125.146869,53.9892269 C125.329858,54.1706299 125.44889,54.4568239 125.505741,54.8469284 C125.548379,55.1472119 125.57947,55.4615851 125.600789,55.7891672 C125.622108,56.1167493 125.678071,56.3985403 125.769565,56.6363015 L127.426241,56.6363015 C127.348959,56.5315104 127.29122,56.4038239 127.252135,56.2541224 C127.213938,56.1044209 127.185512,55.9459134 127.167746,55.7786" id="Fill-20" fill="#FEFEFE" mask="url(#mask-4)"></path>
                    <polygon id="Fill-21" fill="#FEFEFE" mask="url(#mask-4)" points="130.21221 53.4249403 133.863114 53.4249403 133.863114 52.1489552 130.21221 52.1489552 130.21221 50.5471493 134.190896 50.5471493 134.190896 49.1672537 128.555534 49.1672537 128.555534 56.635597 134.274396 56.635597 134.274396 55.2548209 130.21221 55.2548209"></polygon>
                    <path d="M140.353018,52.7446791 C140.106071,52.5835299 139.858236,52.4681716 139.609513,52.3942015 C139.359013,52.3211119 139.163587,52.2709179 139.023236,52.2427388 C138.55155,52.1238582 138.169582,52.0269925 137.87822,51.9495 C137.58597,51.8728881 137.357678,51.7962761 137.192454,51.7196642 C137.026343,51.6430522 136.916194,51.5585149 136.860231,51.468694 C136.80338,51.3779925 136.775843,51.2591119 136.775843,51.1120522 C136.775843,50.9526642 136.811374,50.819694 136.88155,50.714903 C136.951726,50.6101119 137.041444,50.5238134 137.149816,50.4533657 C137.259965,50.3837985 137.380773,50.3353657 137.514906,50.3071866 C137.648151,50.2790075 137.781396,50.2657985 137.91464,50.2657985 C138.118949,50.2657985 138.307268,50.2825299 138.480486,50.3177537 C138.651928,50.3529776 138.805603,50.4119776 138.938848,50.4956343 C139.072981,50.579291 139.179577,50.6946493 139.2613,50.8408284 C139.341247,50.9870075 139.389215,51.1719328 139.402539,51.3956045 L141.006805,51.3956045 C141.006805,50.9632313 140.924194,50.5951418 140.75897,50.2913358 C140.593747,49.9884104 140.369896,49.7392015 140.089194,49.543709 C139.807603,49.349097 139.485151,49.2073209 139.123614,49.1201418 C138.761188,49.0329627 138.382773,48.9889328 137.988369,48.9889328 C137.651704,48.9889328 137.313263,49.0347239 136.97571,49.1254254 C136.638156,49.2161269 136.336135,49.3552612 136.068757,49.543709 C135.80138,49.7321567 135.584635,49.9672761 135.419412,50.2499478 C135.254188,50.5317388 135.171577,50.8654851 135.171577,51.2485448 C135.171577,51.5902164 135.236422,51.881694 135.367002,52.122097 C135.497582,52.3625 135.668135,52.5632761 135.878662,52.7244254 C136.090077,52.8838134 136.329029,53.0150224 136.596406,53.116291 C136.863784,53.2166791 137.13738,53.3029776 137.41897,53.3725448 C137.693454,53.4491567 137.964385,53.5187239 138.231763,53.5812463 C138.49914,53.6437687 138.738093,53.7168582 138.948619,53.8013955 C139.160034,53.8850522 139.331476,53.9889627 139.461167,54.1148881 C139.591747,54.2399328 139.655704,54.4046045 139.655704,54.6062612 C139.655704,54.794709 139.606848,54.9505746 139.509135,55.072097 C139.409646,55.1936194 139.287061,55.2904851 139.139603,55.3600522 C138.992146,55.4296194 138.83314,55.4771716 138.664364,55.5009478 C138.495587,55.5256045 138.336582,55.5379328 138.189124,55.5379328 C137.971491,55.5379328 137.760077,55.5115149 137.556656,55.4595597 C137.352348,55.4067239 137.174688,55.3274701 137.022789,55.2191567 C136.871779,55.1108433 136.75097,54.9690672 136.659476,54.794709 C136.567981,54.6203507 136.522678,54.4081269 136.522678,54.1571567 L134.918412,54.1571567 C134.912194,54.6168284 134.995694,55.0148582 135.171577,55.3494851 C135.34746,55.6841119 135.584635,55.9597388 135.883991,56.1754851 C136.18246,56.3921119 136.527119,56.5506194 136.91797,56.6518881 C137.307933,56.7531567 137.71122,56.8033507 138.126055,56.8033507 C138.639491,56.8033507 139.091635,56.7443507 139.482486,56.6254701 C139.872449,56.5065896 140.199343,56.3419179 140.464055,56.1288134 C140.72788,55.9165896 140.926859,55.6629776 141.060103,55.3697388 C141.193348,55.0773806 141.25997,54.7603657 141.25997,54.4178134 C141.25997,54.0004104 141.170252,53.656097 140.990816,53.3875149 C140.812268,53.1198134 140.599077,52.9058284 140.353018,52.7446791" id="Fill-22" fill="#FEFEFE" mask="url(#mask-4)"></path>
                    <polygon id="Fill-23" fill="#FEFEFE" mask="url(#mask-4)" points="142.241362 56.635597 143.898037 56.635597 143.898037 49.1672537 142.241362 49.1672537"></polygon>
                    <path d="M150.667755,53.8479791 C150.594027,54.1447403 150.475883,54.4115612 150.314213,54.6484418 C150.151654,54.886203 149.941128,55.0764119 149.680856,55.2190687 C149.420585,55.3617254 149.103463,55.4330537 148.731266,55.4330537 C148.358181,55.4330537 148.041059,55.3617254 147.781676,55.2190687 C147.521404,55.0764119 147.309989,54.886203 147.148319,54.6484418 C146.986649,54.4115612 146.868505,54.1447403 146.794777,53.8479791 C146.721048,53.5520985 146.683739,53.2465313 146.683739,52.9330388 C146.683739,52.6054567 146.721048,52.2884418 146.794777,51.9811134 C146.868505,51.6737851 146.986649,51.4008 147.148319,51.1595164 C147.309989,50.9191134 147.521404,50.7271433 147.781676,50.5844866 C148.041059,50.4418299 148.358181,50.3705015 148.731266,50.3705015 C149.103463,50.3705015 149.420585,50.4418299 149.680856,50.5844866 C149.941128,50.7271433 150.151654,50.9191134 150.314213,51.1595164 C150.475883,51.4008 150.594027,51.6737851 150.667755,51.9811134 C150.741484,52.2884418 150.777904,52.6054567 150.777904,52.9330388 C150.777904,53.2465313 150.741484,53.5520985 150.667755,53.8479791 M151.453899,50.1292179 C151.136777,49.7734567 150.750367,49.4951881 150.292894,49.2926507 C149.83542,49.090994 149.314878,48.9888448 148.731266,48.9888448 C148.153872,48.9888448 147.635106,49.090994 147.174968,49.2926507 C146.713941,49.4951881 146.324867,49.7734567 146.008633,50.1292179 C145.691511,50.4849791 145.449894,50.9015015 145.280229,51.3796657 C145.111452,51.8569493 145.027064,52.3747403 145.027064,52.9330388 C145.027064,53.4763672 145.111452,53.983591 145.280229,54.4547104 C145.449894,54.9258299 145.691511,55.3353075 146.008633,55.6840239 C146.324867,56.0327403 146.713941,56.306606 147.174968,56.5056209 C147.635106,56.7037552 148.153872,56.8032627 148.731266,56.8032627 C149.314878,56.8032627 149.83542,56.7037552 150.292894,56.5056209 C150.750367,56.306606 151.136777,56.0327403 151.453899,55.6840239 C151.770133,55.3353075 152.012638,54.9258299 152.182303,54.4547104 C152.350191,53.983591 152.43458,53.4763672 152.43458,52.9330388 C152.43458,52.3747403 152.350191,51.8569493 152.182303,51.3796657 C152.012638,50.9015015 151.770133,50.4849791 151.453899,50.1292179" id="Fill-24" fill="#FEFEFE" mask="url(#mask-4)"></path>
                    <polygon id="Fill-25" fill="#FEFEFE" mask="url(#mask-4)" points="150.640929 46.6458403 148.994913 46.6458403 147.876546 48.4977358 148.921184 48.4977358"></polygon>
                    <polygon id="Fill-26" fill="#FEFEFE" mask="url(#mask-4)" points="158.375338 54.1774104 158.354907 54.1774104 155.210333 49.167694 153.563429 49.167694 153.563429 56.6360373 155.115285 56.6360373 155.115285 51.6360075 155.136604 51.6360075 158.270519 56.6360373 159.927195 56.6360373 159.927195 49.167694 158.375338 49.167694"></polygon>
                    <path d="M167.128626,55.3752866 C166.92787,55.4976896 166.694248,55.5584507 166.425982,55.5584507 C166.285631,55.5584507 166.15061,55.5329134 166.020918,55.4800776 C165.88945,55.4281224 165.775748,55.3576746 165.678035,55.2713761 C165.578546,55.1833164 165.500376,55.079406 165.44086,54.957003 C165.380455,54.8354806 165.350253,54.707794 165.350253,54.5757045 C165.350253,54.4216 165.380455,54.2824657 165.44086,54.1565403 C165.500376,54.0314955 165.578546,53.9161373 165.678035,53.8122269 C165.775748,53.7065552 165.888562,53.6167343 166.015588,53.5392418 C166.141727,53.4626299 166.271418,53.3965851 166.406439,53.3402269 L167.692695,54.8997642 C167.516812,55.0952567 167.328493,55.2528836 167.128626,55.3752866 M166.458849,50.2598985 C166.592094,50.1383761 166.750211,50.0767343 166.9332,50.0767343 C167.116189,50.0767343 167.276971,50.1471821 167.413769,50.2863164 C167.550567,50.4263313 167.618966,50.5927642 167.618966,50.7882567 C167.618966,51.0603612 167.543461,51.2734657 167.391562,51.4266896 C167.240551,51.5799134 167.059338,51.7234507 166.848812,51.8555403 C166.707572,51.6811821 166.574328,51.5103463 166.447301,51.3430328 C166.321163,51.1748388 166.258094,50.9731821 166.258094,50.7354209 C166.258094,50.540809 166.324716,50.3823015 166.458849,50.2598985 M169.898338,53.999794 C170.018259,53.6863015 170.094652,53.3622418 170.130184,53.0267343 L168.832381,53.0267343 C168.81195,53.1808388 168.779971,53.3323015 168.738221,53.4828836 C168.694695,53.6325851 168.635179,53.777003 168.557897,53.9161373 L167.587876,52.7343761 C167.967179,52.5318388 168.285189,52.2808687 168.542796,51.9814657 C168.798626,51.6811821 168.927429,51.3113313 168.927429,50.872794 C168.927429,50.5795552 168.872354,50.3215403 168.76487,50.0978687 C168.654721,49.8750776 168.506376,49.688391 168.320721,49.5386896 C168.135067,49.3881075 167.916546,49.275391 167.666934,49.1978985 C167.417322,49.1212866 167.14728,49.0825403 166.859471,49.0825403 C166.606306,49.0825403 166.362024,49.1230478 166.125737,49.2031821 C165.88945,49.284197 165.681588,49.3986746 165.497711,49.5492567 C165.314721,49.6989582 165.16904,49.8786 165.05978,50.0873015 C164.951407,50.2968836 164.897221,50.5302418 164.897221,50.7882567 C164.897221,51.1167194 164.964732,51.4020328 165.102418,51.6468388 C165.239216,51.8907642 165.409769,52.133809 165.614078,52.3786149 C165.396445,52.483406 165.18503,52.6049284 164.98161,52.7449433 C164.777301,52.8840776 164.596088,53.0434657 164.437971,53.2204657 C164.278966,53.3983463 164.153716,53.5964806 164.06311,53.8166299 C163.971615,54.0358985 163.926312,54.2789433 163.926312,54.544003 C163.926312,54.8997642 163.989381,55.2150179 164.115519,55.4906448 C164.241657,55.765391 164.414876,55.9996299 164.633397,56.1916 C164.85103,56.3835701 165.109524,56.5279881 165.407993,56.6257343 C165.707349,56.7226 166.02536,56.7719134 166.362913,56.7719134 C166.791961,56.7719134 167.177482,56.6988239 167.518588,56.5526448 C167.859695,56.4055851 168.181259,56.1863164 168.484168,55.8930776 L169.097094,56.6363015 L170.932317,56.6363015 L169.40178,54.8680627 C169.613195,54.603003 169.778418,54.3141672 169.898338,53.999794" id="Fill-27" fill="#FEFEFE" mask="url(#mask-4)"></path>
                    <path d="M179.331884,54.0630209 C179.226177,54.3483343 179.085826,54.5808119 178.909943,54.7586925 C178.733171,54.9356925 178.533304,55.0633791 178.308565,55.1408716 C178.082937,55.2174836 177.851091,55.2553493 177.611251,55.2553493 L176.134012,55.2553493 L176.134012,50.5476776 L177.315448,50.5476776 C177.724953,50.5476776 178.066948,50.6049164 178.344985,50.7202746 C178.623911,50.8356328 178.846873,51.0011851 179.01565,51.2178119 C179.184427,51.4335582 179.305235,51.6933343 179.379852,51.9962597 C179.453581,52.3000657 179.490001,52.6399761 179.490001,53.0168716 C179.490001,53.4281104 179.436703,53.7768269 179.331884,54.0630209 M180.171326,50.0871254 C179.864863,49.7806776 179.501549,49.5508418 179.084049,49.3967373 C178.665661,49.2435134 178.213517,49.1669015 177.728506,49.1669015 L174.477336,49.1669015 L174.477336,56.6361254 L177.728506,56.6361254 C178.305012,56.6361254 178.806012,56.5401403 179.231506,56.3481701 C179.657889,56.1570806 180.01232,55.8929015 180.297464,55.5582746 C180.582607,55.2236478 180.794022,54.8264985 180.93615,54.3659463 C181.076501,53.905394 181.146677,53.4034537 181.146677,52.8601254 C181.146677,52.2393045 181.060512,51.6986179 180.888182,51.2380657 C180.715852,50.778394 180.4769,50.3944537 180.171326,50.0871254" id="Fill-28" fill="#FEFEFE" mask="url(#mask-4)"></path>
                    <polygon id="Fill-29" fill="#FEFEFE" mask="url(#mask-4)" points="182.296489 56.635597 183.954053 56.635597 183.954053 49.1672537 182.296489 49.1672537"></polygon>
                    <path d="M190.368807,52.7446791 C190.123637,52.5835299 189.875802,52.4681716 189.625302,52.3942015 C189.37569,52.3211119 189.181153,52.2709179 189.039914,52.2427388 C188.568228,52.1238582 188.18626,52.0269925 187.894898,51.9495 C187.602648,51.8728881 187.374355,51.7962761 187.208244,51.7196642 C187.043909,51.6430522 186.932871,51.5585149 186.87602,51.468694 C186.820057,51.3779925 186.79252,51.2591119 186.79252,51.1120522 C186.79252,50.9526642 186.827164,50.819694 186.897339,50.714903 C186.967515,50.6101119 187.057233,50.5238134 187.167382,50.4533657 C187.275754,50.3837985 187.396563,50.3353657 187.530696,50.3071866 C187.66394,50.2790075 187.797185,50.2657985 187.932206,50.2657985 C188.136515,50.2657985 188.324834,50.2825299 188.496276,50.3177537 C188.668605,50.3529776 188.821393,50.4119776 188.954637,50.4956343 C189.08877,50.579291 189.196254,50.6946493 189.277089,50.8408284 C189.357924,50.9870075 189.405893,51.1719328 189.420105,51.3956045 L191.023483,51.3956045 C191.023483,50.9632313 190.940871,50.5951418 190.775648,50.2913358 C190.609536,49.9884104 190.387462,49.7392015 190.105871,49.543709 C189.824281,49.349097 189.502717,49.2073209 189.140291,49.1201418 C188.777866,49.0329627 188.399451,48.9889328 188.005935,48.9889328 C187.667494,48.9889328 187.32994,49.0347239 186.993276,49.1254254 C186.655722,49.2161269 186.352813,49.3552612 186.085435,49.543709 C185.818057,49.7321567 185.601313,49.9672761 185.436089,50.2499478 C185.270866,50.5317388 185.188254,50.8654851 185.188254,51.2485448 C185.188254,51.5902164 185.253988,51.881694 185.38368,52.122097 C185.513371,52.3625 185.684813,52.5632761 185.895339,52.7244254 C186.105866,52.8838134 186.345706,53.0150224 186.612196,53.116291 C186.879573,53.2166791 187.154057,53.3029776 187.436536,53.3725448 C187.710132,53.4491567 187.981063,53.5187239 188.247552,53.5812463 C188.515818,53.6437687 188.75477,53.7168582 188.966185,53.8013955 C189.176712,53.8850522 189.347265,53.9889627 189.477845,54.1148881 C189.608424,54.2399328 189.67327,54.4046045 189.67327,54.6062612 C189.67327,54.794709 189.624414,54.9505746 189.524924,55.072097 C189.426323,55.1936194 189.303738,55.2904851 189.156281,55.3600522 C189.007935,55.4296194 188.850706,55.4771716 188.681041,55.5009478 C188.512265,55.5256045 188.354148,55.5379328 188.20669,55.5379328 C187.988169,55.5379328 187.777643,55.5115149 187.573334,55.4595597 C187.369026,55.4067239 187.191366,55.3274701 187.040355,55.2191567 C186.889345,55.1108433 186.767648,54.9690672 186.676153,54.794709 C186.585547,54.6203507 186.538467,54.4081269 186.538467,54.1571567 L184.935089,54.1571567 C184.927983,54.6168284 185.012371,55.0148582 185.188254,55.3494851 C185.364137,55.6841119 185.601313,55.9597388 185.900669,56.1754851 C186.200026,56.3921119 186.544685,56.5506194 186.934648,56.6518881 C187.325499,56.7531567 187.72701,56.8033507 188.143621,56.8033507 C188.656169,56.8033507 189.108313,56.7443507 189.499164,56.6254701 C189.889127,56.5065896 190.216909,56.3419179 190.479845,56.1288134 C190.743669,55.9165896 190.942648,55.6629776 191.075893,55.3697388 C191.209137,55.0773806 191.276648,54.7603657 191.276648,54.4178134 C191.276648,54.0004104 191.18693,53.656097 191.007494,53.3875149 C190.828946,53.1198134 190.615754,52.9058284 190.368807,52.7446791" id="Fill-30" fill="#FEFEFE" mask="url(#mask-4)"></path>
                    <polygon id="Fill-31" fill="#FEFEFE" mask="url(#mask-4)" points="193.914626 53.4249403 197.56553 53.4249403 197.56553 52.1489552 193.914626 52.1489552 193.914626 50.5471493 197.893312 50.5471493 197.893312 49.1672537 192.257062 49.1672537 192.257062 56.635597 197.976812 56.635597 197.976812 55.2548209 193.914626 55.2548209"></polygon>
                    <polygon id="Fill-32" fill="#FEFEFE" mask="url(#mask-4)" points="203.907089 54.1774104 203.88577 54.1774104 200.741195 49.167694 199.095179 49.167694 199.095179 56.6360373 200.646147 56.6360373 200.646147 51.6360075 200.667466 51.6360075 203.801381 56.6360373 205.458057 56.6360373 205.458057 49.167694 203.907089 49.167694"></polygon>
                    <path d="M203.041798,47.4722806 C202.922766,47.4722806 202.804622,47.4537881 202.688255,47.4150418 C202.571888,47.3771761 202.458186,47.3331463 202.345372,47.2838328 C202.232559,47.2424448 202.121521,47.2019373 202.013149,47.163191 C201.903888,47.1253254 201.789298,47.1059522 201.669378,47.1059522 C201.43842,47.1059522 201.244771,47.1446985 201.089319,47.2213104 C200.934755,47.298803 200.807729,47.3974299 200.710016,47.5198328 C200.611415,47.6413552 200.534133,47.7778478 200.477282,47.9275493 C200.421319,48.0772507 200.375128,48.2287134 200.340484,48.3819373 L200.9845,48.3819373 C201.019144,48.2507284 201.066223,48.1441761 201.126628,48.0631612 C201.187032,47.9830269 201.286521,47.9434 201.427761,47.9434 C201.546793,47.9434 201.665824,47.9610119 201.785745,47.9953552 C201.905665,48.0305791 202.031803,48.0728478 202.165936,48.1204 C202.299181,48.1626687 202.435979,48.2031761 202.578106,48.2410418 C202.718457,48.2797881 202.869468,48.2982806 203.031138,48.2982806 C203.242553,48.2982806 203.41666,48.2595343 203.553457,48.1785194 C203.690255,48.0983851 203.802181,47.9997582 203.891011,47.8808776 C203.978952,47.761997 204.045574,47.6334299 204.091766,47.4934149 C204.137069,47.3534 204.177931,47.2248328 204.212574,47.1059522 L203.485947,47.1059522 C203.492165,47.2036985 203.460186,47.2891164 203.390011,47.362206 C203.318947,47.4361761 203.203468,47.4722806 203.041798,47.4722806" id="Fill-33" fill="#FEFEFE" mask="url(#mask-4)"></path>
                    <path d="M212.227953,53.8479791 C212.154224,54.1447403 212.03608,54.4115612 211.873522,54.6484418 C211.71274,54.886203 211.502213,55.0764119 211.241054,55.2190687 C210.980782,55.3617254 210.664548,55.4330537 210.291463,55.4330537 C209.918378,55.4330537 209.601256,55.3617254 209.340985,55.2190687 C209.081602,55.0764119 208.871075,54.886203 208.708516,54.6484418 C208.546846,54.4115612 208.428703,54.1447403 208.354974,53.8479791 C208.282134,53.5520985 208.243937,53.2465313 208.243937,52.9330388 C208.243937,52.6054567 208.282134,52.2884418 208.354974,51.9811134 C208.428703,51.6737851 208.546846,51.4008 208.708516,51.1595164 C208.871075,50.9191134 209.081602,50.7271433 209.340985,50.5844866 C209.601256,50.4418299 209.918378,50.3705015 210.291463,50.3705015 C210.664548,50.3705015 210.980782,50.4418299 211.241054,50.5844866 C211.502213,50.7271433 211.71274,50.9191134 211.873522,51.1595164 C212.03608,51.4008 212.154224,51.6737851 212.227953,51.9811134 C212.301681,52.2884418 212.33899,52.6054567 212.33899,52.9330388 C212.33899,53.2465313 212.301681,53.5520985 212.227953,53.8479791 M213.013208,50.1292179 C212.696974,49.7734567 212.309676,49.4951881 211.853091,49.2926507 C211.395618,49.090994 210.875075,48.9888448 210.291463,48.9888448 C209.714958,48.9888448 209.196192,49.090994 208.735165,49.2926507 C208.273251,49.4951881 207.885064,49.7734567 207.56883,50.1292179 C207.252596,50.4849791 207.009203,50.9015015 206.840426,51.3796657 C206.672538,51.8569493 206.587261,52.3747403 206.587261,52.9330388 C206.587261,53.4763672 206.672538,53.983591 206.840426,54.4547104 C207.009203,54.9258299 207.252596,55.3353075 207.56883,55.6840239 C207.885064,56.0327403 208.273251,56.306606 208.735165,56.5056209 C209.196192,56.7037552 209.714958,56.8032627 210.291463,56.8032627 C210.875075,56.8032627 211.395618,56.7037552 211.853091,56.5056209 C212.309676,56.306606 212.696974,56.0327403 213.013208,55.6840239 C213.33033,55.3353075 213.572836,54.9258299 213.742501,54.4547104 C213.910389,53.983591 213.994777,53.4763672 213.994777,52.9330388 C213.994777,52.3747403 213.910389,51.8569493 213.742501,51.3796657 C213.572836,50.9015015 213.33033,50.4849791 213.013208,50.1292179" id="Fill-34" fill="#FEFEFE" mask="url(#mask-4)"></path>
                </g>
            </g>
        </g>
    </g>
</svg>