<?xml version="1.0" encoding="UTF-8" standalone="no"?>
<svg width="64px" height="53px" viewBox="0 0 64 53" version="1.1" xmlns="http://www.w3.org/2000/svg" xmlns:xlink="http://www.w3.org/1999/xlink">
    <!-- Generator: Sketch 49.1 (51147) - http://www.bohemiancoding.com/sketch -->
    <title>Twitter</title>
    <desc>Created with Sketch.</desc>
    <defs></defs>
    <g id="Landing" stroke="none" stroke-width="1" fill="none" fill-rule="evenodd">
        <g id="Tablet" transform="translate(-59.000000, -3363.000000)" fill="#FFFFFF" fill-rule="nonzero">
            <g id="Twitter" transform="translate(59.000000, 3363.000000)">
                <g id="Twitter-black">
                    <g id="Icons">
                        <g id="Black">
                            <path d="M64,6.26269162 C61.6100333,7.34250221 59.0670522,8.05176955 56.46,8.36568627 C59.2203464,6.67552752 61.2710098,4.05172007 62.2333333,0.978752228 C59.6634191,2.5307971 56.8401811,3.62605805 53.8906667,4.21524777 C51.5026667,1.62023173 48.088,-5.68434189e-14 44.308,-5.68434189e-14 C37.0613333,-5.68434189e-14 31.1826667,5.97964706 31.1826667,13.356 C31.1826667,14.4022068 31.296,15.4193155 31.5213333,16.3980677 C20.608,15.8385918 10.9346667,10.5281996 4.45466667,2.4376221 C3.28582121,4.48778279 2.67384004,6.80395477 2.67866667,9.15926916 C2.67866667,13.791148 4.996,17.8794225 8.51866667,20.2760428 C6.42864393,20.2074473 4.38682094,19.635493 2.56933333,18.6095187 L2.56933333,18.7735258 C2.56933333,25.2465169 7.096,30.6468485 13.1066667,31.8689661 C11.9811736,32.1855007 10.816512,32.3439954 9.64666667,32.3398253 C8.80133333,32.3398253 7.97466667,32.2591444 7.17466667,32.1017504 C8.84666667,37.4055294 13.692,41.2702781 19.44,41.3734439 C14.9466667,44.9577932 9.28266667,47.0938538 3.13333333,47.0938538 C2.07333333,47.0938538 1.02666667,47.0316898 0,46.9100071 C5.812,50.6927522 12.716,52.9055258 20.128,52.9055258 C44.2813333,52.9055258 57.4866667,32.556738 57.4866667,14.9061319 C57.4866667,14.3254938 57.4746667,13.7448556 57.452,13.1761212 C60.0327012,11.2773124 62.2502768,8.93597874 64,6.26269162" id="Twitter"></path>
                        </g>
                    </g>
                </g>
            </g>
        </g>
    </g>
</svg>