<?xml version="1.0" encoding="UTF-8" standalone="no"?>
<svg width="215px" height="50px" viewBox="0 0 215 50" version="1.1" xmlns="http://www.w3.org/2000/svg" xmlns:xlink="http://www.w3.org/1999/xlink">
    <!-- Generator: Sketch 49.1 (51147) - http://www.bohemiancoding.com/sketch -->
    <title>Universidad_de_Montemorelos</title>
    <desc>Created with Sketch.</desc>
    <defs>
        <polygon id="path-1" points="0.556445455 0.587144444 8.83636364 0.587144444 8.83636364 13.9377 0.556445455 13.9377"></polygon>
        <polygon id="path-3" points="0.0146454545 0.371233333 8.82400909 0.371233333 8.82400909 14 0.0146454545 14"></polygon>
        <polygon id="path-5" points="0.602619201 0.19745098 14.8229568 0.19745098 14.8229568 37.7978321 0.602619201 37.7978321"></polygon>
        <polygon id="path-7" points="0 0.432375437 57.3515861 0.432375437 57.3515861 42.9995998 0 42.9995998"></polygon>
    </defs>
    <g id="Landing" stroke="none" stroke-width="1" fill="none" fill-rule="evenodd">
        <g id="Tablet" transform="translate(-43.000000, -17.000000)">
            <g id="Header" transform="translate(43.000000, 17.000000)">
                <g id="Universidad_de_Montemorelos">
                    <path d="M80,23.2959494 C80,25.9534616 78.2197686,28 74.4396884,28 C70.8800575,28 69,26.1147946 69,23.2593508 L69,15 L70.8001966,15 L70.8001966,23.3131284 C70.8001966,25.3970124 72.0405354,26.5995404 74.5403464,26.5995404 C77.1200182,26.5995404 78.2197686,25.2349325 78.2197686,23.2959494 L78.2197686,15 L80,15 L80,23.2959494 Z" id="Fill-1" fill="#FEFEFE"></path>
                    <path d="M90.960388,28 L83.5351657,17.2031459 L83.458367,17.2031459 C83.5157639,18.0589572 83.6135812,19.4062919 83.6135812,20.73545 L83.6135812,28 L82,28 L82,15 L84.0210186,15 L91.4260307,25.760501 L91.5044462,25.760501 C91.4656427,25.1773376 91.3678254,23.521002 91.3678254,22.337256 L91.3678254,15 L93,15 L93,28 L90.960388,28 Z" id="Fill-3" fill="#FEFEFE"></path>
                    <polygon id="Fill-5" fill="#FEFEFE" points="95 28 95.5812641 26.5436062 96.6277007 26.5436062 96.6277007 16.4382173 95 16.4382173 95 15 100 15 99.4179297 16.4382173 98.3722993 16.4382173 98.3722993 26.5436062 100 26.5436062 100 28"></polygon>
                    <path d="M107.900166,28 L106.099834,28 L101,15 L102.8802,15 L106.099834,23.3392368 C106.519967,24.4139237 106.800333,25.3235071 107,26.1793184 C107.1797,25.3235071 107.480865,24.3949898 107.900166,23.3028838 L111.099834,15 L113,15 L107.900166,28 Z" id="Fill-7" fill="#FEFEFE"></path>
                    <polygon id="Fill-9" fill="#FEFEFE" points="114 28 114 15 121.582609 15 121.582609 16.4382173 115.709881 16.4382173 115.709881 20.4991553 120.802372 20.4991553 120.802372 21.919196 115.709881 21.919196 115.709881 26.5625401 122 26.5625401 121.43004 28"></polygon>
                    <path d="M125.764946,16.4207981 L125.764946,21.24515 L127.861838,21.24515 C130.13653,21.24515 131.137264,20.4082726 131.137264,18.7693562 C131.137264,17.0759103 130.059049,16.4207981 127.763967,16.4207981 L125.764946,16.4207981 Z M132.960117,18.6966502 C132.960117,20.7718031 131.567898,21.7184969 130.15692,22.1744247 L134,28 L131.939809,28 L128.548569,22.6288378 L125.764946,22.6288378 L125.764946,28 L124,28 L124,15 L127.861838,15 C131.333007,15 132.960117,16.220099 132.960117,18.6966502 Z" id="Fill-11" fill="#FEFEFE"></path>
                    <path d="M137.911925,28 C136.31495,28 134.898091,27.7878273 134,27.3988439 L134.557779,26.0874986 C135.177811,26.3350334 136.475145,26.6186671 137.991607,26.6186671 C140.10652,26.6186671 141.203818,25.839227 141.203818,24.5816616 C141.203818,23.3425139 140.424421,22.8106086 137.852163,21.9781254 C135.416859,21.2001587 134.180116,20.1893914 134.180116,18.2231101 C134.180116,16.22294 136.03523,15 138.728673,15 C140.285807,15 141.583141,15.2836337 142.660518,15.7087159 L142.081158,17.0731044 C141.083464,16.7003287 139.927234,16.3997507 138.689662,16.3997507 C136.9134,16.3997507 135.995389,17.1438286 135.995389,18.2415278 C135.995389,19.5167743 136.793046,20.0309985 139.107996,20.7920209 C141.622983,21.6245041 143,22.4569874 143,24.4402131 C143,26.6901281 141.024532,28 137.911925,28" id="Fill-13" fill="#FEFEFE"></path>
                    <polygon id="Fill-15" fill="#FEFEFE" points="144 28 144.581264 26.5436062 145.627701 26.5436062 145.627701 16.4382173 144 16.4382173 144 15 149 15 148.417124 16.4382173 147.372299 16.4382173 147.372299 26.5436062 149 26.5436062 149 28"></polygon>
                    <path d="M155.980511,16.4026216 L153.730274,16.4026216 L153.730274,26.5988931 L155.596538,26.5988931 C159.307469,26.5988931 161.172933,24.8501602 161.172933,21.4276726 C161.172933,17.9680746 159.28907,16.4026216 155.980511,16.4026216 M155.827722,28 L152,28 L152,15 L156.230092,15 C160.364992,15 163,17.2039033 163,21.3723857 C163,25.760501 160.345793,28 155.827722,28" id="Fill-17" fill="#FEFEFE"></path>
                    <path d="M168.621202,18.626153 C168.507759,18.3357893 168.113444,17.1388873 167.982005,16.6863723 C167.792672,17.429251 167.549355,18.2090851 167.399139,18.626153 L165.875081,22.5419156 L170.125701,22.5419156 L168.621202,18.626153 Z M170.633459,23.9929802 L165.310992,23.9929802 L163.712609,28 L162,28 L167.247359,15 L168.771417,15 L174,28 L172.251402,28 L170.633459,23.9929802 Z" id="Fill-19" fill="#FEFEFE"></path>
                    <path d="M180.980511,16.4026216 L178.730274,16.4026216 L178.730274,26.5988931 L180.596538,26.5988931 C184.307469,26.5988931 186.172933,24.8501602 186.172933,21.4276726 C186.172933,17.9680746 184.28907,16.4026216 180.980511,16.4026216 M180.827722,28 L177,28 L177,15 L181.230092,15 C185.364992,15 188,17.2039033 188,21.3723857 C188,25.760501 185.345793,28 180.827722,28" id="Fill-21" fill="#FEFEFE"></path>
                    <path d="M197.98131,16.4026216 L195.731074,16.4026216 L195.731074,26.5988931 L197.596538,26.5988931 C201.307469,26.5988931 203.172933,24.8501602 203.172933,21.4276726 C203.172933,17.9680746 201.28907,16.4026216 197.98131,16.4026216 M197.827722,28 L194,28 L194,15 L198.230892,15 C202.364992,15 205,17.2039033 205,21.3723857 C205,25.760501 202.345793,28 197.827722,28" id="Fill-23" fill="#FEFEFE"></path>
                    <g id="Group-27" transform="translate(206.000000, 15.000000)">
                        <mask id="mask-2" fill="white">
                            <use xlink:href="#path-1"></use>
                        </mask>
                        <g id="Clip-26"></g>
                        <polygon id="Fill-25" fill="#FEFEFE" mask="url(#mask-2)" points="0.556445455 13.9377 0.556445455 0.587144444 8.40444545 0.587144444 8.40444545 2.06414444 2.32617273 2.06414444 2.32617273 6.23458889 7.5969 6.23458889 7.5969 7.69292222 2.32617273 7.69292222 2.32617273 12.4614778 8.83644545 12.4614778 8.24571818 13.9377"></polygon>
                    </g>
                    <path d="M70.4588719,38.6024994 L70.3855464,38.6024994 C70.470329,39.47659 70.5131022,40.648146 70.5131022,42.1156419 L70.5131022,50 L69,50 L69,37 L71.4250881,37 L75.436604,47.6515489 L75.5099295,47.6515489 L79.5940071,37 L82,37 L82,50 L80.3776733,50 L80.3776733,42.007334 C80.3776733,40.9639169 80.4204465,39.8343112 80.5059929,38.6200422 L80.4326675,38.6200422 L76.0927145,50 L74.7438308,50 L70.4588719,38.6024994 Z" id="Fill-28" fill="#FEFEFE"></path>
                    <path d="M86.7949908,47.2853072 C87.5051809,48.1751396 88.5761871,48.6204263 90.0095353,48.6204263 C91.4413578,48.6204263 92.5100756,48.1751396 93.2141631,47.2853072 C93.9174878,46.3947338 94.2706757,45.130742 94.2706757,43.4911091 C94.2706757,41.852217 93.9213019,40.5934116 93.223317,39.7146928 C92.5245693,38.8367149 91.4596656,38.3973555 90.0270803,38.3973555 C88.5822897,38.3973555 87.5051809,38.8396786 86.7949908,39.7235837 C86.0848007,40.6082298 85.7300871,41.8640716 85.7300871,43.4911091 C85.7300871,45.130742 86.0848007,46.3947338 86.7949908,47.2853072 M95.3081177,46.9222615 C94.8466086,47.9010031 94.1699828,48.6589536 93.2782404,49.1946313 C92.3857352,49.7325316 91.2948954,50 90.0095353,50 C88.0307673,50 86.5341046,49.4161632 85.521073,48.2492306 C84.5065158,47.0815571 84,45.4900832 84,43.4733273 C84,41.4684259 84.5095671,39.8888066 85.5294641,38.7329876 C86.5493611,37.5779095 88.0483122,37 90.0270803,37 C91.3017609,37 92.3887865,37.2652456 93.2866315,37.7957369 C94.1852393,38.3262282 94.8618651,39.0782515 95.3172716,40.0510658 C95.7726782,41.0238801 96,42.1708082 96,43.4911091 C96,44.8002964 95.7696269,45.9435199 95.3081177,46.9222615" id="Fill-30" fill="#FEFEFE"></path>
                    <path d="M107.959073,50 L100.53619,39.203532 L100.458037,39.203532 C100.561427,40.7206055 100.613529,41.8982633 100.613529,42.7357428 L100.613529,50 L99,50 L99,37 L101.021388,37 L108.424734,47.7598568 L108.502886,47.7598568 C108.412522,46.4006689 108.367747,45.2603849 108.367747,44.3374795 L108.367747,37 L110,37 L110,50 L107.959073,50 Z" id="Fill-32" fill="#FEFEFE"></path>
                    <polygon id="Fill-34" fill="#FEFEFE" points="115.16882 50 115.16882 38.4385121 111 38.4385121 111.561428 37 121 37 121 38.4385121 116.849973 38.4385121 116.849973 50"></polygon>
                    <polygon id="Fill-36" fill="#FEFEFE" points="124 50 124 37 131.58209 37 131.58209 38.4385121 125.710647 38.4385121 125.710647 42.4985332 130.802786 42.4985332 130.802786 43.917977 125.710647 43.917977 125.710647 48.5614879 132 48.5614879 131.43005 50"></polygon>
                    <path d="M134.458872,38.6024994 L134.385546,38.6024994 C134.471093,39.47659 134.513102,40.648146 134.513102,42.1156419 L134.513102,50 L133,50 L133,37 L135.425088,37 L139.437368,47.6515489 L139.509929,47.6515489 L143.594007,37 L146,37 L146,50 L144.377673,50 L144.377673,42.007334 C144.377673,40.9639169 144.420447,39.8343112 144.505993,38.6200422 L144.432667,38.6200422 L140.092714,50 L138.743831,50 L134.458872,38.6024994 Z" id="Fill-38" fill="#FEFEFE"></path>
                    <path d="M151.796339,47.2853072 C152.506484,48.1751396 153.576659,48.6204263 155.009916,48.6204263 C156.44241,48.6204263 157.509535,48.1751396 158.21434,47.2853072 C158.918383,46.3947338 159.270786,45.130742 159.270786,43.4911091 C159.270786,41.852217 158.921434,40.5934116 158.223494,39.7146928 C157.525553,38.8367149 156.459191,38.3973555 155.02746,38.3973555 C153.583524,38.3973555 152.506484,38.8396786 151.796339,39.7235837 C151.084668,40.6082298 150.73074,41.8640716 150.73074,43.4911091 C150.73074,45.130742 151.084668,46.3947338 151.796339,47.2853072 M160.308162,46.9222615 C159.847445,47.9010031 159.170862,48.6589536 158.277651,49.1946313 C157.385965,49.7325316 156.295957,50 155.009916,50 C153.030511,50 151.533944,49.4161632 150.520976,48.2492306 C149.508009,47.0815571 149,45.4900832 149,43.4733273 C149,41.4684259 149.51106,39.8888066 150.530892,38.7329876 C151.549962,37.5779095 153.04958,37 155.02746,37 C156.302059,37 157.389016,37.2652456 158.287567,37.7957369 C159.186117,38.3262282 159.861937,39.0782515 160.318078,40.0510658 C160.773455,41.0238801 161,42.1708082 161,43.4911091 C161,44.8002964 160.769641,45.9435199 160.308162,46.9222615" id="Fill-40" fill="#FEFEFE"></path>
                    <path d="M164.764561,38.4194438 L164.764561,43.2444849 L166.862647,43.2444849 C167.986445,43.2444849 168.814508,43.0385473 169.342726,42.6259094 C169.872587,42.2132715 170.137928,41.5939333 170.137928,40.7686576 C170.137928,39.9311781 169.866015,39.3301455 169.323831,38.9655597 C168.780826,38.6017367 167.92812,38.4194438 166.76489,38.4194438 L164.764561,38.4194438 Z M170.705578,37.9190918 C171.542676,38.5323281 171.961636,39.4575217 171.961636,40.6954353 C171.961636,42.4077681 171.026781,43.5663577 169.157069,44.1734921 L173,50 L170.941346,50 L167.549413,44.628843 L164.764561,44.628843 L164.764561,50 L163,50 L163,37 L166.862647,37 C168.587776,37 169.869301,37.3058554 170.705578,37.9190918 Z" id="Fill-42" fill="#FEFEFE"></path>
                    <polygon id="Fill-44" fill="#FEFEFE" points="175 50 175 37 182.581294 37 182.581294 38.4385121 176.709055 38.4385121 176.709055 42.4985332 181.802786 42.4985332 181.802786 43.917977 176.709055 43.917977 176.709055 48.5614879 183 48.5614879 182.43005 50"></polygon>
                    <polygon id="Fill-46" fill="#FEFEFE" points="185 37 186.718856 37 186.718856 48.5439451 193 48.5439451 192.428114 50 185 50"></polygon>
                    <path d="M195.795168,47.2853072 C196.505404,48.1751396 197.575715,48.6204263 199.009917,48.6204263 C200.441831,48.6204263 201.509854,48.1751396 202.213986,47.2853072 C202.918118,46.3947338 203.271329,45.130742 203.271329,43.4911091 C203.271329,41.852217 202.921933,40.5934116 202.223903,39.7146928 C201.525111,38.8367149 200.459377,38.3973555 199.026701,38.3973555 C197.582581,38.3973555 196.505404,38.8396786 195.795168,39.7235837 C195.08417,40.6082298 194.730197,41.8640716 194.730197,43.4911091 C194.730197,45.130742 195.08417,46.3947338 195.795168,47.2853072 M204.308074,46.9222615 C203.847298,47.9010031 203.170629,48.6589536 202.278067,49.1946313 C201.385505,49.7325316 200.295359,50 199.009917,50 C197.030261,50 195.533503,49.4161632 194.519644,48.2492306 C193.506548,47.0815571 193,45.4900832 193,43.4733273 C193,41.4684259 193.509599,39.8888066 194.529561,38.7329876 C195.54876,37.5779095 197.04857,37 199.026701,37 C200.301462,37 201.388557,37.2652456 202.287222,37.7957369 C203.185887,38.3262282 203.861793,39.0782515 204.317991,40.0510658 C204.773427,41.0238801 205,42.1708082 205,43.4911091 C205,44.8002964 204.770375,45.9435199 204.308074,46.9222615" id="Fill-48" fill="#FEFEFE"></path>
                    <g id="Group-52" transform="translate(206.000000, 36.000000)">
                        <mask id="mask-4" fill="white">
                            <use xlink:href="#path-3"></use>
                        </mask>
                        <g id="Clip-51"></g>
                        <path d="M7.48546364,13.0155667 C6.59364545,13.6720111 5.38028182,14.0002333 3.84291818,14.0002333 C3.06237273,14.0002333 2.33828182,13.9434556 1.67473636,13.8322333 C1.01119091,13.7210111 0.457281818,13.5662333 0.0146454545,13.3686778 L0.561190909,11.9951222 C0.913827273,12.1429 1.38837273,12.2735667 1.98728182,12.3840111 C2.58700909,12.4952333 3.23091818,12.5512333 3.92146364,12.5512333 C4.93764545,12.5512333 5.71491818,12.3630111 6.25491818,11.9850111 C6.79491818,11.6070111 7.06573636,11.0851222 7.06573636,10.4162333 C7.06573636,9.98378889 6.96755455,9.61823333 6.77282727,9.32112222 C6.5781,9.02401111 6.24837273,8.75334444 5.7861,8.50367778 C5.32382727,8.25634444 4.65700909,7.98412222 3.78482727,7.68623333 C2.54773636,7.26623333 1.63873636,6.75601111 1.05946364,6.15556667 C0.479372727,5.55434444 0.189736364,4.75323333 0.189736364,3.75067778 C0.189736364,2.71078889 0.599645455,1.8879 1.4211,1.28123333 C2.24173636,0.675344444 3.31519091,0.371233333 4.6431,0.371233333 C6.03646364,0.371233333 7.32019091,0.619344444 8.49100909,1.11401111 L7.92482727,2.54356667 C6.75237273,2.07378889 5.64619091,1.8389 4.60464545,1.8389 C3.75782727,1.8389 3.10655455,2.01312222 2.65164545,2.35845556 C2.1951,2.70456667 1.96846364,3.17512222 1.96846364,3.76856667 C1.96846364,4.21578889 2.06173636,4.58601111 2.25237273,4.8839 C2.43973636,5.18023333 2.74982727,5.4439 3.17855455,5.67256667 C3.60891818,5.90201111 4.22091818,6.15867778 5.01455455,6.44334444 C5.90064545,6.75212222 6.61328182,7.06867778 7.1541,7.39067778 C7.6941,7.7119 8.10728182,8.10467778 8.39364545,8.56901111 C8.68082727,9.03334444 8.82400909,9.59878889 8.82400909,10.2676778 C8.82400909,11.4436778 8.37728182,12.3591222 7.48546364,13.0155667" id="Fill-50" fill="#FEFEFE" mask="url(#mask-4)"></path>
                    </g>
                    <path d="M33.4848665,36.5490397 L33.4689279,36.5010098 C32.7091897,34.1676865 32.6811074,31.2804699 34.8472343,28.1639494 C36.5663223,25.6888603 38.3764879,23.5461072 37.9954803,19.6487135 C37.9916854,19.6099797 37.968916,19.2164444 38.3628263,19.0498891 C38.7992394,18.8655163 39.0755078,19.2497555 39.0899284,19.2737704 C41.047336,22.6110736 41.4905799,26.2109918 40.4644399,29.0424317 C39.1035901,32.7988344 36.1056219,33.8330265 34.5686889,36.7078483 C34.4722985,36.887573 34.2453637,37.0161692 34.0282957,36.9983517 C33.7937711,36.9797594 33.5683542,36.8008093 33.4848665,36.5490397" id="Fill-53" fill="#FEFEFE"></path>
                    <g id="Group-57" transform="translate(14.000000, 0.000000)">
                        <mask id="mask-6" fill="white">
                            <use xlink:href="#path-5"></use>
                        </mask>
                        <g id="Clip-56"></g>
                        <path d="M8.579175,37.7424196 C2.274675,35.3677922 -2.971575,27.1262627 3.713925,18.2849294 C9.534675,10.5865765 13.676175,6.16292941 12.285675,0.921164706 C12.258675,0.817596078 12.221175,0.442811765 12.554925,0.274419608 C13.079175,0.0076745098 13.370925,0.51285098 13.392675,0.548615686 C16.784925,6.12269412 13.705425,12.7346941 8.736675,20.3346941 C5.933175,24.6219882 4.391925,31.3800275 9.221175,36.772302 C9.473925,37.053949 9.458925,37.3512431 9.307425,37.5613608 C9.170925,37.7498706 8.933175,37.8757922 8.579175,37.7424196" id="Fill-55" fill="#FEFEFE" mask="url(#mask-6)"></path>
                    </g>
                    <g id="Group-60" transform="translate(0.000000, 7.000000)">
                        <mask id="mask-8" fill="white">
                            <use xlink:href="#path-7"></use>
                        </mask>
                        <g id="Clip-59"></g>
                        <path d="M4.60909211,35.9769684 C5.48367105,35.817793 8.62406579,35.2044772 15.1551711,33.5048456 C19.2540921,32.4388982 23.8963816,33.181214 25.8042763,35.1147053 C27.5122237,36.8437579 28.1174079,38.9605649 28.2425658,39.2902316 C28.4341184,39.7956702 28.6470395,40.9340386 28.6470395,40.9340386 C28.6470395,40.9340386 29.3323553,39.1167228 29.5643553,38.7840386 C29.7185132,38.5630035 30.5831711,38.5320737 31.2303289,36.8241439 C31.7118816,35.5552667 31.2486447,33.7764246 28.9240658,32.162793 C23.9070658,28.6828105 23.2988289,20.2781965 27.6503553,13.9534246 C31.7057763,8.05714386 33.1420395,4.23240702 32.5841711,1.14168772 C32.5757763,1.09038947 32.5254079,0.673968421 32.8894342,0.495933333 C33.2809342,0.303564912 33.5968816,0.606073684 33.6228289,0.639266667 C38.79475,7.41968772 34.6500395,14.1367404 32.1621447,17.7336526 C29.7482763,21.2196702 28.9423816,24.1783719 29.6971447,27.5716 C29.8505395,28.3033544 29.9825658,29.4070211 30.6373553,30.5808456 C31.2501711,31.5200561 32.2369342,34.0872316 33.8174342,33.5093719 C36.3274605,32.5965649 38.7810132,33.171407 42.9799079,34.0563018 C48.8981974,35.3025474 51.7318026,35.8358982 52.5155658,35.9807404 C52.7651184,36.0275123 52.8956184,36.2176175 52.9421711,36.2840035 C52.9704079,36.3217228 57.2288289,42.0580737 57.2288289,42.0580737 C57.2288289,42.0580737 57.4539605,42.3326702 57.2944605,42.6555474 C57.1967763,42.8200035 57.0151447,43.0470737 56.6190658,42.9746526 C53.0619868,42.300986 44.1521184,40.6292667 40.5156711,40.1125123 C35.7444079,39.4365825 31.2455921,40.0627228 29.1720921,42.4601614 C29.0782237,42.568793 28.9416184,42.740793 28.6645921,42.740793 C28.38375,42.740793 28.2456184,42.5914246 28.1479342,42.4767579 C26.1095395,40.0951614 21.7099342,39.4388456 17.1218289,40.0846 C13.5288816,40.590793 4.42211842,42.2904246 0.801697368,42.9731439 C0.373565789,43.0817754 0.0896710526,42.8381088 0.0171710526,42.5657754 C-0.0583815789,42.2934421 0.138513158,42.0399684 0.138513158,42.0399684 L4.23743421,36.1806526 C4.23743421,36.1806526 4.33740789,36.032793 4.60909211,35.9769684" id="Fill-58" fill="#FEFEFE" mask="url(#mask-8)"></path>
                    </g>
                </g>
            </g>
        </g>
    </g>
</svg>